<svg preserveAspectRatio="none" width="100%" height="100%" overflow="visible" style="display: block;" viewBox="0 0 18.1708 17.6902" fill="none" xmlns="http://www.w3.org/2000/svg">
<path id="arrow_forward" d="M14.2042 10.0193H1.16667C0.836111 10.0193 0.559028 9.90753 0.335417 9.68392C0.111806 9.46031 0 9.18322 0 8.85267C0 8.52211 0.111806 8.24503 0.335417 8.02142C0.559028 7.79781 0.836111 7.686 1.16667 7.686H14.2042L8.4875 1.96933C8.25417 1.736 8.14236 1.46378 8.15208 1.15267C8.16181 0.841556 8.28333 0.569333 8.51667 0.336C8.75 0.122111 9.02222 0.0103056 9.33333 0.000583333C9.64445 -0.00913889 9.91667 0.102667 10.15 0.336L17.85 8.036C17.9667 8.15267 18.0493 8.27906 18.0979 8.41517C18.1465 8.55128 18.1708 8.69711 18.1708 8.85267C18.1708 9.00822 18.1465 9.15406 18.0979 9.29017C18.0493 9.42628 17.9667 9.55267 17.85 9.66933L10.15 17.3693C9.93611 17.5832 9.66875 17.6902 9.34792 17.6902C9.02708 17.6902 8.75 17.5832 8.51667 17.3693C8.28333 17.136 8.16667 16.8589 8.16667 16.5381C8.16667 16.2173 8.28333 15.9402 8.51667 15.7068L14.2042 10.0193Z" fill="var(--fill-0, #E8E9EA)"/>
</svg>
