<svg preserveAspectRatio="none" width="100%" height="100%" overflow="visible" style="display: block;" viewBox="0 0 1258 26" fill="none" xmlns="http://www.w3.org/2000/svg">
<g id="Layer_1">
<path id="Vector" d="M0 0L23.96 25.97H44.06L20.1 0H0Z" fill="var(--fill-0, #187ADC)"/>
<path id="Vector_2" d="M36.3906 0L60.3506 25.97H80.4606L56.5006 0H36.3906Z" fill="var(--fill-0, #187ADC)"/>
<path id="Vector_3" d="M72.7891 0L96.7491 25.97H116.849L92.8891 0H72.7891Z" fill="var(--fill-0, #187ADC)"/>
<path id="Vector_4" d="M109.18 0L133.14 25.97H153.25L129.29 0H109.18Z" fill="var(--fill-0, #187ADC)"/>
<path id="Vector_5" d="M145.58 0L169.54 25.97H189.64L165.68 0H145.58Z" fill="var(--fill-0, #187ADC)"/>
<path id="Vector_6" d="M181.971 0L205.931 25.97H226.031L202.071 0H181.971Z" fill="var(--fill-0, #187ADC)"/>
<path id="Vector_7" d="M218.359 0L242.319 25.97H262.429L238.469 0H218.359Z" fill="var(--fill-0, #187ADC)"/>
<path id="Vector_8" d="M254.76 0L278.72 25.97H298.82L274.86 0H254.76Z" fill="var(--fill-0, #187ADC)"/>
<path id="Vector_9" d="M291.15 0L315.11 25.97H335.22L311.26 0H291.15Z" fill="var(--fill-0, #187ADC)"/>
<path id="Vector_10" d="M327.551 0L351.511 25.97H371.611L347.651 0H327.551Z" fill="var(--fill-0, #187ADC)"/>
<path id="Vector_11" d="M363.939 0L387.899 25.97H407.999L384.049 0H363.939Z" fill="var(--fill-0, #187ADC)"/>
<path id="Vector_12" d="M400.33 0L424.29 25.97H444.4L420.44 0H400.33Z" fill="var(--fill-0, #187ADC)"/>
<path id="Vector_13" d="M436.73 0L460.69 25.97H480.79L456.83 0H436.73Z" fill="var(--fill-0, #187ADC)"/>
<path id="Vector_14" d="M473.119 0L497.079 25.97H517.189L493.229 0H473.119Z" fill="var(--fill-0, #187ADC)"/>
<path id="Vector_15" d="M509.52 0L533.48 25.97H553.58L529.62 0H509.52Z" fill="var(--fill-0, #187ADC)"/>
<path id="Vector_16" d="M545.91 0L569.87 25.97H589.97L566.02 0H545.91Z" fill="var(--fill-0, #187ADC)"/>
<path id="Vector_17" d="M582.301 0L606.261 25.97H626.371L602.411 0H582.301Z" fill="var(--fill-0, #187ADC)"/>
<path id="Vector_18" d="M618.811 0L642.771 25.97H662.871L638.911 0H618.811Z" fill="var(--fill-0, #187ADC)"/>
<path id="Vector_19" d="M655.199 0L679.159 25.97H699.269L675.309 0H655.199Z" fill="var(--fill-0, #187ADC)"/>
<path id="Vector_20" d="M691.6 0L715.56 25.97H735.66L711.7 0H691.6Z" fill="var(--fill-0, #187ADC)"/>
<path id="Vector_21" d="M727.99 0L751.95 25.97H772.05L748.1 0H727.99Z" fill="var(--fill-0, #187ADC)"/>
<path id="Vector_22" d="M764.391 0L788.351 25.97H808.451L784.491 0H764.391Z" fill="var(--fill-0, #187ADC)"/>
<path id="Vector_23" d="M800.779 0L824.739 25.97H844.839L820.879 0H800.779Z" fill="var(--fill-0, #187ADC)"/>
<path id="Vector_24" d="M837.17 0L861.13 25.97H881.24L857.28 0H837.17Z" fill="var(--fill-0, #187ADC)"/>
<path id="Vector_25" d="M873.57 0L897.53 25.97H917.63L893.67 0H873.57Z" fill="var(--fill-0, #187ADC)"/>
<path id="Vector_26" d="M909.961 0L933.921 25.97H954.031L930.071 0H909.961Z" fill="var(--fill-0, #187ADC)"/>
<path id="Vector_27" d="M946.359 0L970.309 25.97H990.419L966.459 0H946.359Z" fill="var(--fill-0, #187ADC)"/>
<path id="Vector_28" d="M982.75 0L1006.71 25.97H1026.81L1002.85 0H982.75Z" fill="var(--fill-0, #187ADC)"/>
<path id="Vector_29" d="M1019.14 0L1043.1 25.97H1063.21L1039.25 0H1019.14Z" fill="var(--fill-0, #187ADC)"/>
<path id="Vector_30" d="M1055.54 0L1079.5 25.97H1099.6L1075.64 0H1055.54Z" fill="var(--fill-0, #187ADC)"/>
<path id="Vector_31" d="M1091.93 0L1115.89 25.97H1135.99L1112.04 0H1091.93Z" fill="var(--fill-0, #187ADC)"/>
<path id="Vector_32" d="M1128.33 0L1152.29 25.97H1172.39L1148.43 0H1128.33Z" fill="var(--fill-0, #187ADC)"/>
<path id="Vector_33" d="M1164.72 0L1188.68 25.97H1208.78L1184.83 0H1164.72Z" fill="var(--fill-0, #187ADC)"/>
<path id="Vector_34" d="M1201.11 0L1225.07 25.97H1245.18L1221.22 0H1201.11Z" fill="var(--fill-0, #187ADC)"/>
</g>
</svg>
