<svg preserveAspectRatio="none" width="100%" height="100%" overflow="visible" style="display: block;" viewBox="0 0 24 22.2832" fill="none" xmlns="http://www.w3.org/2000/svg">
<path id="Union" d="M22.1416 14.8344C22.8008 14.5332 23.5795 14.8237 23.8809 15.4828C24.1821 16.1419 23.8924 16.9206 23.2334 17.2221L12.4238 22.1645C12.0737 22.3244 11.6709 22.3227 11.3223 22.1596L0.756842 17.2172C0.100277 16.9101 -0.183101 16.1287 0.12403 15.4721C0.431208 14.8156 1.21263 14.5322 1.86915 14.8393L11.8848 19.5248L22.1416 14.8344ZM22.1416 9.89301C22.8008 9.59157 23.5794 9.88127 23.8809 10.5405C24.1822 11.1995 23.8924 11.9782 23.2334 12.2797L12.4238 17.2221C12.0737 17.3821 11.671 17.3803 11.3223 17.2172L0.756842 12.2748C0.100277 11.9677 -0.183101 11.1863 0.12403 10.5297C0.431252 9.87336 1.21268 9.58983 1.86915 9.89691L11.8848 14.5825L22.1416 9.89301ZM11.333 0.119568C11.6768 -0.0380524 12.0719 -0.0399948 12.417 0.114685L23.2246 4.96234C23.6949 5.17338 23.9984 5.64023 24 6.1557C24.0016 6.6713 23.7006 7.14007 23.2315 7.35394L12.4248 12.2807C12.0754 12.44 11.6732 12.4381 11.3252 12.2758L0.757819 7.34906C0.294261 7.13286 -0.0015776 6.66721 6.32886e-06 6.1557C0.00160316 5.64415 0.300652 5.1805 0.765631 4.96722L11.333 0.119568ZM4.43946 6.16937L11.8857 9.64105L19.502 6.16937L11.8857 2.75336L4.43946 6.16937Z" fill="var(--fill-0, #FBAF45)"/>
</svg>
