<svg preserveAspectRatio="none" width="100%" height="100%" overflow="visible" style="display: block;" viewBox="0 0 26.666 23.8458" fill="none" xmlns="http://www.w3.org/2000/svg">
<path id="Union" d="M11.1318 0.141549C13.4787 -0.226011 15.8838 0.126191 18.0186 1.15229C20.1536 2.17863 21.9168 3.83061 23.0635 5.88569C24.2103 7.94114 24.6831 10.2979 24.416 12.6328C24.2031 14.4935 23.5267 16.2643 22.4619 17.7968L26.2842 21.6191C26.7933 22.1285 26.7933 22.9544 26.2842 23.4638C25.7747 23.9731 24.9479 23.9732 24.4385 23.4638L20.7344 19.7597C19.2849 21.0708 17.5181 22.0035 15.5957 22.458C13.2845 23.0042 10.8587 22.8372 8.64941 21.9785C7.97824 21.7173 7.6454 20.9613 7.90625 20.29C8.16723 19.6186 8.92327 19.286 9.59473 19.5468C11.3098 20.2135 13.1964 20.3439 14.9951 19.9189C16.7938 19.4937 18.4137 18.5339 19.6348 17.1757C20.8556 15.8177 21.6183 14.127 21.8232 12.3359C22.0281 10.5451 21.6665 8.73688 20.7852 7.15717C19.9035 5.57712 18.5432 4.29968 16.8877 3.50385C15.2321 2.70818 13.3628 2.43367 11.5361 2.71967C9.70933 3.00585 8.01719 3.83804 6.69141 5.09956C5.36589 6.36097 4.47069 7.98986 4.12402 9.76069C3.98543 10.4675 3.2997 10.9284 2.59277 10.79C1.88607 10.6513 1.42514 9.96557 1.56348 9.25874C1.92682 7.40306 2.7518 5.67382 3.95215 4.21967C4.37271 3.71022 4.20458 3.83725 4.70898 3.32319C5.21335 2.8092 5.24813 2.85474 5.83105 2.40815C7.37176 1.22771 9.19473 0.445001 11.1318 0.141549ZM11.2549 6.00288C11.7133 6.00467 12.1256 6.28424 12.2959 6.70991L14.2627 11.6279H16.9375C17.5587 11.628 18.0624 12.1317 18.0625 12.7529C18.0625 13.3742 17.5587 13.8777 16.9375 13.8779H13.501C13.0409 13.8779 12.6269 13.598 12.4561 13.1708L11.2393 10.1279L7.22949 19.9296C7.05701 20.3513 6.64694 20.6274 6.19141 20.6289C5.7359 20.6303 5.32461 20.3569 5.14941 19.9365L2.625 13.8779H1.125C0.503618 13.8779 0 13.3743 0 12.7529C0.000136628 12.1316 0.503702 11.6279 1.125 11.6279H3.375C3.82921 11.6279 4.23937 11.901 4.41406 12.3203L6.17871 16.5556L10.21 6.70112C10.3836 6.27721 10.7968 6.00122 11.2549 6.00288Z" fill="var(--fill-0, #FBAF45)"/>
</svg>
