<svg preserveAspectRatio="none" width="100%" height="100%" overflow="visible" style="display: block;" viewBox="0 0 26.6667 26.6667" fill="none" xmlns="http://www.w3.org/2000/svg">
<path id="Vector" d="M5.33333 21.3333H13.3333V20.7333C13.3333 20.3556 13.2278 20.0056 13.0167 19.6833C12.8056 19.3611 12.5111 19.1111 12.1333 18.9333C11.6889 18.7333 11.2389 18.5833 10.7833 18.4833C10.3278 18.3833 9.84444 18.3333 9.33333 18.3333C8.82222 18.3333 8.33889 18.3833 7.88333 18.4833C7.42778 18.5833 6.97778 18.7333 6.53333 18.9333C6.15556 19.1111 5.86111 19.3611 5.65 19.6833C5.43889 20.0056 5.33333 20.3556 5.33333 20.7333V21.3333ZM17 19.3333H20.3333C20.6222 19.3333 20.8611 19.2389 21.05 19.05C21.2389 18.8611 21.3333 18.6222 21.3333 18.3333C21.3333 18.0444 21.2389 17.8056 21.05 17.6167C20.8611 17.4278 20.6222 17.3333 20.3333 17.3333H17C16.7111 17.3333 16.4722 17.4278 16.2833 17.6167C16.0944 17.8056 16 18.0444 16 18.3333C16 18.6222 16.0944 18.8611 16.2833 19.05C16.4722 19.2389 16.7111 19.3333 17 19.3333ZM9.33333 17.3333C9.88889 17.3333 10.3611 17.1389 10.75 16.75C11.1389 16.3611 11.3333 15.8889 11.3333 15.3333C11.3333 14.7778 11.1389 14.3056 10.75 13.9167C10.3611 13.5278 9.88889 13.3333 9.33333 13.3333C8.77778 13.3333 8.30556 13.5278 7.91667 13.9167C7.52778 14.3056 7.33333 14.7778 7.33333 15.3333C7.33333 15.8889 7.52778 16.3611 7.91667 16.75C8.30556 17.1389 8.77778 17.3333 9.33333 17.3333ZM17 15.3333H20.3333C20.6222 15.3333 20.8611 15.2389 21.05 15.05C21.2389 14.8611 21.3333 14.6222 21.3333 14.3333C21.3333 14.0444 21.2389 13.8056 21.05 13.6167C20.8611 13.4278 20.6222 13.3333 20.3333 13.3333H17C16.7111 13.3333 16.4722 13.4278 16.2833 13.6167C16.0944 13.8056 16 14.0444 16 14.3333C16 14.6222 16.0944 14.8611 16.2833 15.05C16.4722 15.2389 16.7111 15.3333 17 15.3333ZM2.66667 26.6667C1.93333 26.6667 1.30556 26.4056 0.783333 25.8833C0.261111 25.3611 0 24.7333 0 24V9.33333C0 8.6 0.261111 7.97222 0.783333 7.45C1.30556 6.92778 1.93333 6.66667 2.66667 6.66667H9.33333V2.66667C9.33333 1.93333 9.59444 1.30556 10.1167 0.783333C10.6389 0.261111 11.2667 0 12 0H14.6667C15.4 0 16.0278 0.261111 16.55 0.783333C17.0722 1.30556 17.3333 1.93333 17.3333 2.66667V6.66667H24C24.7333 6.66667 25.3611 6.92778 25.8833 7.45C26.4056 7.97222 26.6667 8.6 26.6667 9.33333V24C26.6667 24.7333 26.4056 25.3611 25.8833 25.8833C25.3611 26.4056 24.7333 26.6667 24 26.6667H2.66667ZM2.66667 24H24V9.33333H17.3333C17.3333 10.0667 17.0722 10.6944 16.55 11.2167C16.0278 11.7389 15.4 12 14.6667 12H12C11.2667 12 10.6389 11.7389 10.1167 11.2167C9.59444 10.6944 9.33333 10.0667 9.33333 9.33333H2.66667V24ZM12 9.33333H14.6667V2.66667H12V9.33333Z" fill="var(--fill-0, #FBAF45)"/>
</svg>
