<svg preserveAspectRatio="none" width="100%" height="100%" overflow="visible" style="display: block;" viewBox="0 0 24 18.9869" fill="none" xmlns="http://www.w3.org/2000/svg">
<path id="Vector" d="M4.2611 14.5065L6.61097 16.8564C6.84073 17.0862 6.95561 17.3734 6.95561 17.718C6.95561 18.0627 6.84073 18.3603 6.61097 18.611C6.36031 18.8616 6.06266 18.9869 5.71802 18.9869C5.37337 18.9869 5.07572 18.8616 4.82507 18.611L0.344648 14.1305C0.219321 14.0052 0.130548 13.8695 0.078329 13.7232C0.0261097 13.577 0 13.4204 0 13.2533C0 13.0862 0.0261097 12.9295 0.078329 12.7833C0.130548 12.6371 0.219321 12.5013 0.344648 12.376L4.8564 7.86423C5.10705 7.61358 5.39948 7.49347 5.73368 7.50392C6.06788 7.51436 6.36031 7.64491 6.61097 7.89556C6.84073 8.14621 6.96084 8.43864 6.97128 8.77285C6.98172 9.10705 6.86162 9.39948 6.61097 9.65013L4.2611 12H12C12.3551 12 12.6527 12.1201 12.8929 12.3603C13.1332 12.6005 13.2533 12.8982 13.2533 13.2533C13.2533 13.6084 13.1332 13.906 12.8929 14.1462C12.6527 14.3864 12.3551 14.5065 12 14.5065H4.2611ZM19.7389 6.98695H12C11.6449 6.98695 11.3473 6.86684 11.107 6.62663C10.8668 6.38642 10.7467 6.08877 10.7467 5.73368C10.7467 5.37859 10.8668 5.08094 11.107 4.84073C11.3473 4.60052 11.6449 4.48042 12 4.48042H19.7389L17.389 2.13055C17.1593 1.90078 17.0444 1.61358 17.0444 1.26893C17.0444 0.924282 17.1593 0.626632 17.389 0.375979C17.6397 0.125326 17.9373 0 18.282 0C18.6266 0 18.9243 0.125326 19.1749 0.375979L23.6554 4.8564C23.7807 4.98172 23.8695 5.11749 23.9217 5.26371C23.9739 5.40992 24 5.56658 24 5.73368C24 5.90078 23.9739 6.05744 23.9217 6.20366C23.8695 6.34987 23.7807 6.48564 23.6554 6.61097L19.1436 11.1227C18.8929 11.3734 18.6005 11.4935 18.2663 11.483C17.9321 11.4726 17.6397 11.342 17.389 11.0914C17.1593 10.8407 17.0392 10.5483 17.0287 10.2141C17.0183 9.8799 17.1384 9.58747 17.389 9.33682L19.7389 6.98695Z" fill="var(--fill-0, #FBAF45)"/>
</svg>
