<svg preserveAspectRatio="none" width="100%" height="100%" overflow="visible" style="display: block;" viewBox="0 0 21.6667 21.3326" fill="none" xmlns="http://www.w3.org/2000/svg">
<path id="Vector" d="M10.8333 0C4.85063 0 0 4.85063 0 10.8333C0 15.9097 3.49556 20.1572 8.20806 21.3326C8.1575 21.1864 8.125 21.0167 8.125 20.8063V18.9547C7.68535 18.9547 6.94868 18.9547 6.76361 18.9547C6.02243 18.9547 5.3634 18.636 5.04382 18.0438C4.68903 17.3857 4.62764 16.3791 3.74833 15.7634C3.48743 15.5585 3.68604 15.3247 3.98667 15.3563C4.54188 15.5133 5.00229 15.8943 5.43563 16.4594C5.86715 17.0255 6.07028 17.1537 6.87646 17.1537C7.26736 17.1537 7.85236 17.1311 8.40306 17.0444C8.69917 16.2924 9.21104 15.6 9.83667 15.2732C6.22917 14.9022 4.50757 13.1074 4.50757 10.6708C4.50757 9.62181 4.95445 8.60708 5.71368 7.75215C5.46451 6.90354 5.15125 5.17292 5.80938 4.51389C7.43257 4.51389 8.41389 5.56653 8.64951 5.8509C9.4584 5.57375 10.3467 5.41667 11.2802 5.41667C12.2155 5.41667 13.1074 5.57375 13.9181 5.85271C14.151 5.57014 15.1333 4.51389 16.7601 4.51389C17.4209 5.17382 17.104 6.91167 16.8522 7.75847C17.6069 8.6116 18.051 9.62361 18.051 10.6708C18.051 13.1056 16.3322 14.8994 12.7301 15.2723C13.7213 15.7896 14.4444 17.2431 14.4444 18.3381V20.8063C14.4444 20.9002 14.4237 20.9679 14.4128 21.0483C18.6342 19.5686 21.6667 15.5603 21.6667 10.8333C21.6667 4.85063 16.816 0 10.8333 0Z" fill="var(--fill-0, #E8E9EA)"/>
</svg>
