<svg preserveAspectRatio="none" width="100%" height="100%" overflow="visible" style="display: block;" viewBox="0 0 321 19.0995" fill="none" xmlns="http://www.w3.org/2000/svg">
<g id="lf-horizontal-white 1" clip-path="url(#clip0_0_80)">
<g id="Group">
<path id="Vector" d="M23.0799 0.3852H37.6212V1.8618H31.2012V18.7143H29.4678V1.8618H23.0799V0.3852Z" fill="var(--fill-0, white)"/>
<path id="Vector_2" d="M39.3225 0.3852H41.0559V8.346H51.9378V0.3852H53.6712V18.7143H51.9378V9.8226H41.088V18.7143H39.3546L39.3225 0.3852Z" fill="var(--fill-0, white)"/>
<path id="Vector_3" d="M57.4269 0.3852H70.0743V1.8618H59.1603V8.4744H69.3681V9.951H59.1603V17.2056H70.2027V18.6822H57.4269V0.3852Z" fill="var(--fill-0, white)"/>
</g>
<g id="Group_2">
<path id="Vector_4" d="M167.048 0.3852H178.669V1.8618H168.782V8.4744H177.577V9.951H168.782V18.6822H167.048V0.3852Z" fill="var(--fill-0, white)"/>
<path id="Vector_5" d="M188.523 0C194.269 0 197.158 4.5261 197.158 9.5658C197.158 14.6055 194.269 19.1316 188.523 19.1316C182.745 19.1316 179.856 14.6055 179.856 9.5658C179.888 4.5261 182.745 0 188.523 0ZM188.523 17.6229C193.338 17.6229 195.393 13.5783 195.393 9.5658C195.393 5.5533 193.338 1.5087 188.523 1.5087C183.676 1.5087 181.622 5.5533 181.622 9.5658C181.622 13.5462 183.676 17.6229 188.523 17.6229Z" fill="var(--fill-0, white)"/>
<path id="Vector_6" d="M199.694 0.3852H201.427V11.7486C201.427 15.9858 203.418 17.6229 206.788 17.6229C210.191 17.6229 212.181 15.9858 212.181 11.7486V0.3852H213.914V12.1338C213.914 15.9216 211.892 19.1316 206.788 19.1316C201.716 19.1316 199.662 15.9216 199.662 12.1338L199.694 0.3852Z" fill="var(--fill-0, white)"/>
<path id="Vector_7" d="M217.445 0.3852H219.403L230.093 15.8895H230.157V0.3852H231.89V18.7143H229.932L219.243 3.21H219.179V18.7143H217.445V0.3852Z" fill="var(--fill-0, white)"/>
<path id="Vector_8" d="M235.55 0.3852H241.906C247.459 0.5136 250.316 3.4989 250.316 9.5658C250.316 15.6327 247.427 18.618 241.906 18.7464H235.55V0.3852ZM237.315 17.2377H241.039C246.303 17.2377 248.582 15.0549 248.582 9.5658C248.582 4.0767 246.303 1.8939 241.039 1.8939H237.315V17.2377Z" fill="var(--fill-0, white)"/>
<path id="Vector_9" d="M258.501 0.3852H260.459L267.65 18.7143H265.788L263.541 13.0005H255.195L252.98 18.7143H251.118L258.501 0.3852ZM255.741 11.5239H262.963L259.432 2.1186L255.741 11.5239Z" fill="var(--fill-0, white)"/>
<path id="Vector_10" d="M265.595 0.3852H280.137V1.8618H273.749V18.7143H272.015V1.8618H265.628L265.595 0.3852Z" fill="var(--fill-0, white)"/>
<path id="Vector_11" d="M281.999 0.3852H283.732V18.7143H281.999V0.3852Z" fill="var(--fill-0, white)"/>
<path id="Vector_12" d="M295.256 0C301.002 0 303.891 4.5261 303.891 9.5658C303.891 14.6055 301.002 19.1316 295.256 19.1316C289.478 19.1316 286.589 14.6055 286.589 9.5658C286.589 4.5261 289.478 0 295.256 0ZM295.256 17.6229C300.071 17.6229 302.125 13.5783 302.125 9.5658C302.125 5.5533 300.071 1.5087 295.256 1.5087C290.409 1.5087 288.354 5.5533 288.354 9.5658C288.322 13.5462 290.377 17.6229 295.256 17.6229Z" fill="var(--fill-0, white)"/>
<path id="Vector_13" d="M306.555 0.3852H308.513L319.202 15.8895H319.267V0.3852H321V18.7143H319.042L308.353 3.21H308.288V18.7143H306.555V0.3852Z" fill="var(--fill-0, white)"/>
</g>
<g id="Group_3">
<path id="Vector_14" d="M75.0498 0.3852H80.6673V13.9635H88.7565V18.6501H75.0498V0.3852Z" fill="var(--fill-0, white)"/>
<path id="Vector_15" d="M92.4159 0.3852H98.0334V18.6501H92.4159V0.3852Z" fill="var(--fill-0, white)"/>
<path id="Vector_16" d="M102.238 0.3852H107.984L113.313 10.1436H113.377V0.3852H118.706V18.6501H113.249L107.599 8.667H107.535V18.6501H102.206V0.3852H102.238Z" fill="var(--fill-0, white)"/>
<path id="Vector_17" d="M139.474 11.5881C139.474 16.692 136.778 19.0674 131.161 19.0674C125.543 19.0674 122.815 16.6599 122.815 11.5881V0.3852H128.432V10.3362C128.432 12.1659 128.4 14.5413 131.161 14.5413C133.825 14.5413 133.825 12.198 133.825 10.3362V0.3852H139.442V11.5881H139.474Z" fill="var(--fill-0, white)"/>
<path id="Vector_18" d="M148.398 8.9238L142.396 0.3852H148.976L151.737 5.3607L154.433 0.3852H160.66L154.85 8.988L161.367 18.6501H154.594L151.48 13.1931L148.27 18.6501H141.818L148.398 8.9238Z" fill="var(--fill-0, white)"/>
</g>
<path id="Vector_19" d="M3.6594 15.0549V7.7361H0V18.7143H11.0103V15.0549H3.6594Z" fill="var(--fill-0, white)"/>
<path id="Vector_20" d="M18.3291 0.3852H0V5.8743H3.6594V4.0767H14.6697V15.0549H12.84V18.7143H18.3291V0.3852Z" fill="var(--fill-0, white)"/>
</g>
<defs>
<clipPath id="clip0_0_80">
<rect width="321" height="19.0995" fill="white"/>
</clipPath>
</defs>
</svg>
