<svg preserveAspectRatio="none" width="100%" height="100%" overflow="visible" style="display: block;" viewBox="0 0 513 116" fill="none" xmlns="http://www.w3.org/2000/svg">
<path id="Vector" d="M454.777 116H0V46.9534C0 21.0259 21.1634 0 47.2603 0H513L454.767 116H454.777ZM42.5979 40.6218L25.3147 97.5648H52.4964L57.9515 77.7927H74.8905V97.5648H101.05V18.4767H68.069C53.5081 18.4767 47.8235 23.3368 42.5979 40.6218ZM63.3023 58.5907L67.0573 45.2642C68.8722 38.715 69.6753 37.8031 73.6493 37.8031H74.9009V58.5907H63.3023ZM150.981 99.8238C159.742 99.8238 168.723 98.1244 175.659 95.3057V50.5699H150.636V78.3627H149.27C140.175 78.3627 134.146 70.9016 134.146 58.9326C134.146 45.0363 142.334 38.2591 155.977 38.2591C164.394 38.2591 171.33 40.9741 175.763 45.8238V19.9482C169.849 17.4611 161.432 16.2176 153.359 16.2176C124.706 16.2176 106.161 33.0466 106.161 59.6062C106.161 82.9948 121.859 99.8238 150.97 99.8238H150.981ZM182.595 97.5648H208.181V57.4611C224.213 73.1606 229.219 83.3368 229.219 97.5648H253.668V18.4767H228.082V45.1399L205 18.4767H182.595V97.5648ZM279.598 97.5648H306.321V39.9482H308.939C317.242 39.9482 323.5 41.7513 327.13 45.8238V18.487H258.79V45.8238C262.43 41.7617 268.688 39.9482 276.98 39.9482H279.598V97.5648ZM329.414 58.0207C329.414 82.7668 346.812 99.8238 371.835 99.8238C379 99.8238 385.592 98.3523 389.233 96.0933V70.2176C386.385 74.6218 381.389 76.8808 375.131 76.8808C364.095 76.8808 357.388 69.6477 357.388 58.0104C357.388 46.3731 364.095 39.1399 375.131 39.1399C381.389 39.1399 386.385 41.399 389.233 45.8031V19.9275C385.592 17.6684 379 16.1969 371.835 16.1969C346.812 16.1969 329.414 33.2539 329.414 58V58.0207ZM404.471 97.5648H432.905L472.363 18.4767H443.711L431.997 44.9119L420.399 18.4767H391.517L417.895 71.5751L404.482 97.5648H404.471Z" fill="var(--fill-0, #FBAF45)"/>
</svg>
