<svg width="153" height="50" viewBox="0 0 153 50" fill="none" xmlns="http://www.w3.org/2000/svg">
<g clip-path="url(#clip0_3900_172)">
<path d="M25.0461 49.5718H0.524902V26.2968H49.5367C48.8978 39.2586 38.1775 49.5718 25.0461 49.5718Z" fill="white"/>
<path d="M25.0461 0.571794H0.524902V23.8467H49.5367C48.8978 10.885 38.1775 0.571794 25.0461 0.571794Z" fill="white"/>
<path d="M128.035 0.571794C114.903 0.571794 104.183 10.885 103.544 23.8467H152.525C151.886 10.885 141.166 0.571794 128.035 0.571794Z" fill="white"/>
<path d="M128.035 49.5718C114.903 49.5718 104.183 39.2586 103.544 26.2968H152.525C151.886 39.2586 141.166 49.5718 128.035 49.5718Z" fill="white"/>
<path d="M52.0193 0.571809V25.0718C52.0193 38.1919 62.3414 48.9028 75.3144 49.5413V0.571809H52.0193Z" fill="white"/>
<path d="M101.062 49.5718H77.7665V0.571814H101.062V25.0718V49.5718Z" fill="white"/>
</g>
<defs>
<clipPath id="clip0_3900_172">
<rect width="152" height="49" fill="white" transform="translate(0.524902 0.571655)"/>
</clipPath>
</defs>
</svg>
