<svg width="82" height="34" viewBox="0 0 82 34" fill="none" xmlns="http://www.w3.org/2000/svg">
<g clip-path="url(#clip0_3153_109)">
<path d="M39.7925 21.5898C39.3425 22.0162 38.8203 22.3715 38.2261 22.6202C37.6499 22.8689 37.0015 22.9933 36.3174 22.9933C35.9573 22.9933 35.6152 22.9578 35.2911 22.8868C34.9671 22.8158 34.6428 22.7091 34.3368 22.5848C34.0308 22.4427 33.7425 22.2827 33.4726 22.1051C33.2024 21.9095 32.9502 21.6964 32.7343 21.4654L41.251 18.2143L44.8701 16.8285C44.6722 15.5849 44.222 14.4123 43.5378 13.3996C41.9892 11.0901 39.3244 9.57996 36.3174 9.57996C31.5458 9.57996 27.6567 13.4175 27.6567 18.1254C27.6567 18.5696 27.6926 18.996 27.7647 19.4224C27.9628 20.666 28.4128 21.8386 29.0972 22.8512C29.4931 23.4197 29.9434 23.9527 30.4655 24.4147C30.9879 24.8767 31.5458 25.2852 32.1761 25.6229C32.7882 25.9602 33.4545 26.227 34.1567 26.4043C34.8589 26.5821 35.5791 26.671 36.3354 26.671C37.5237 26.671 38.6761 26.44 39.7023 25.996C40.7469 25.5694 41.6652 24.9298 42.4572 24.166C43.2498 23.3842 43.8799 22.4781 44.3121 21.4477C44.4919 21.0213 44.6359 20.5593 44.7441 20.0975H40.819C40.5848 20.666 40.2425 21.1634 39.7925 21.5898ZM36.3354 13.2398C37.7398 13.2398 39.0182 13.8439 39.9187 14.7677L31.4018 18.0189C31.4557 15.3894 33.6526 13.2398 36.3354 13.2398Z" fill="white"/>
<path d="M24.12 19.5492L24.102 0.722839H20.335L20.353 19.4598C20.353 23.4148 23.0206 26.2245 26.9137 26.5107V22.8242C25.2737 22.5558 24.12 21.2673 24.12 19.5492Z" fill="white"/>
<path d="M24.0788 19.5845L24.0607 0.758057H20.2937L20.3118 19.4951C20.3118 23.45 22.9794 26.2597 26.8725 26.5459V22.8594C25.2325 22.591 24.0788 21.3025 24.0788 19.5845Z" fill="white"/>
<path d="M63.9616 17.8226C63.7785 13.2745 59.9213 9.61469 55.1863 9.61469C50.3419 9.61469 46.3931 13.4522 46.3931 18.1601C46.3931 22.868 50.3419 26.7057 55.1863 26.7057C57.0511 26.7057 58.7879 26.137 60.2138 25.1599V26.5456H63.9979L63.9616 17.8581V17.8226ZM55.1863 23.0459C52.426 23.0459 50.1772 20.8606 50.1772 18.178C50.1772 15.4953 52.426 13.31 55.1863 13.31C57.9469 13.31 60.1955 15.4952 60.1955 18.178C60.1955 20.8607 57.9469 23.0459 55.1863 23.0459Z" fill="white"/>
<path d="M73.8297 9.51752C69.3676 9.51752 65.7505 13.1022 65.7505 17.5241V26.5902H69.5911V17.518C69.5911 15.2186 71.4722 13.3545 73.7924 13.3545H73.8668C76.1872 13.3545 78.0683 15.2186 78.0683 17.518V26.5902H81.9089V17.5241C81.9089 13.1022 78.2918 9.51752 73.8297 9.51752Z" fill="white"/>
<path fill-rule="evenodd" clip-rule="evenodd" d="M12.4444 10.3269L14.9057 7.20483L17.8926 9.51742L15.4492 12.6167C16.7105 14.1114 17.4696 16.0365 17.4696 18.1374C17.4696 22.8932 13.5793 26.7486 8.78036 26.7486C3.98139 26.7486 0.0910645 22.8932 0.0910645 18.1374C0.0910645 13.3816 3.98139 9.52624 8.78036 9.52624C10.0895 9.52624 11.331 9.81311 12.4444 10.3269ZM8.78036 23.0502C6.04245 23.0502 3.82294 20.8507 3.82294 18.1374C3.82294 15.4241 6.04245 13.2246 8.78036 13.2246C11.5183 13.2246 13.7378 15.4241 13.7378 18.1374C13.7378 20.8507 11.5183 23.0502 8.78036 23.0502ZM17.5708 25.5042C17.3556 25.7568 17.1288 25.9979 16.892 26.2324C16.6553 26.4654 16.4086 26.6885 16.152 26.9003C15.8971 27.1118 15.6322 27.312 15.3574 27.5007C15.0843 27.6893 14.8012 27.8681 14.5115 28.0321C14.2234 28.1979 13.9271 28.3488 13.6241 28.4882C13.3228 28.6278 13.0149 28.7542 12.7004 28.8655C12.3875 28.9788 12.0697 29.0773 11.7452 29.161C11.4257 29.2479 11.0996 29.3184 10.7701 29.3743C10.444 29.4317 10.1129 29.4743 9.77851 29.5021C9.44906 29.5302 9.11632 29.5447 8.78026 29.5447C8.44421 29.5447 8.11147 29.5302 7.78204 29.5021C7.44762 29.4743 7.11653 29.4317 6.7904 29.3743C6.46097 29.3184 6.13485 29.2479 5.81535 29.161L4.84026 32.7669C5.26407 32.8802 5.6978 32.9752 6.1365 33.0508C6.56856 33.1262 7.00892 33.1836 7.45423 33.2198C7.89128 33.2574 8.33329 33.2771 8.78026 33.2771C9.22724 33.2771 9.66925 33.2574 10.1063 33.2198C10.5516 33.1836 10.9903 33.1262 11.424 33.0508C11.8627 32.9752 12.2948 32.8802 12.7203 32.7669C13.1507 32.6553 13.5745 32.5241 13.9883 32.3731C14.4072 32.2239 14.8161 32.0566 15.2167 31.8712C15.619 31.6858 16.013 31.4841 16.3954 31.2659C16.7795 31.046 17.1536 30.8098 17.5161 30.5571C17.8803 30.3062 18.233 30.0402 18.5723 29.758C18.9133 29.476 19.2411 29.1805 19.554 28.8704C19.8685 28.5604 20.1682 28.239 20.4546 27.9026C20.741 27.5679 21.0125 27.2184 21.2674 26.8591L18.1833 24.7182C17.9913 24.9889 17.786 25.2515 17.5708 25.5042Z" fill="white"/>
</g>
<defs>
<clipPath id="clip0_3153_109">
<rect width="82" height="33" fill="white" transform="translate(0 0.5)"/>
</clipPath>
</defs>
</svg>
