<svg width="223" height="37" viewBox="0 0 223 37" fill="none" xmlns="http://www.w3.org/2000/svg">
<path d="M45.2842 0.584473H51.2819C51.4051 0.584473 51.4873 0.687172 51.4873 0.789872V35.4613C51.4873 35.5845 51.3846 35.6667 51.2819 35.6667H45.2842C45.161 35.6667 45.0788 35.564 45.0788 35.4613V0.810413C45.0583 0.687174 45.161 0.584473 45.2842 0.584473Z" fill="white"/>
<path d="M56.3963 10.6285H61.6545C61.7778 10.6285 61.8805 10.7517 61.8599 10.875C61.5108 12.6414 60.874 14.4078 59.9292 16.1537C59.9086 16.1743 59.9086 16.2154 59.9086 16.2564V16.4413C59.9086 16.5645 60.0113 16.6467 60.114 16.6467H62.0448C62.1475 16.6467 62.2297 16.5851 62.2502 16.4824C62.7226 14.49 63.7085 12.9084 65.1669 11.7582C66.6663 10.5669 68.556 9.97122 70.8359 9.97122C73.5677 9.97122 75.6628 10.8339 77.08 12.5798C78.4973 14.3257 79.2162 16.7699 79.2162 19.9536V35.4818C79.2162 35.6051 79.1135 35.6872 79.0108 35.6872H73.465C73.3418 35.6872 73.2596 35.5845 73.2596 35.4818V20.8574C73.2596 17.0164 71.6575 15.0857 68.4533 15.0857C66.6868 15.0857 65.208 15.7635 64.0372 17.1397C62.8664 18.5158 62.2707 20.2823 62.2297 22.4595V35.4818C62.2297 35.6051 62.127 35.6872 62.0243 35.6872H56.4374C56.3142 35.6872 56.232 35.5845 56.232 35.4818V10.8339C56.1909 10.7107 56.2731 10.6285 56.3963 10.6285Z" fill="white"/>
<path d="M104.234 0.789872V6.33565C104.234 6.43835 104.316 6.54105 104.439 6.54105H109.985C110.088 6.54105 110.19 6.45889 110.19 6.33565V0.789872C110.19 0.687172 110.108 0.584473 109.985 0.584473H104.439C104.316 0.584473 104.234 0.687172 104.234 0.789872Z" fill="white"/>
<path d="M93.779 10.6284C93.6558 10.6284 93.5736 10.5257 93.5736 10.423V8.53331C93.5736 7.42415 93.7584 6.68471 94.1282 6.29445C94.4979 5.90419 95.1962 5.71933 96.2232 5.71933H100.372C100.496 5.71933 100.578 5.61663 100.578 5.51393V0.810288C100.578 0.687049 100.475 0.604889 100.372 0.604889H94.2719C92.1974 0.604889 90.5748 1.26217 89.3834 2.55618C88.1921 3.8502 87.5965 5.65771 87.5965 7.91711V10.423C87.5965 10.5462 87.4938 10.6284 87.3911 10.6284H82.2766C82.1534 10.6284 82.0712 10.7311 82.0712 10.8338V15.332C82.0712 15.4553 82.1739 15.5374 82.2766 15.5374H87.3911C87.5143 15.5374 87.5965 15.6401 87.5965 15.7428V35.4612C87.5965 35.5844 87.6992 35.6666 87.8019 35.6666H93.3476C93.4709 35.6666 93.553 35.5639 93.553 35.4612V15.7428C93.553 15.6196 93.6557 15.5374 93.7584 15.5374H104.213V35.4612C104.213 35.5844 104.316 35.6666 104.419 35.6666H109.964C110.088 35.6666 110.17 35.5639 110.17 35.4612V10.8132C110.17 10.69 110.067 10.6078 109.964 10.6078L93.779 10.6284Z" fill="white"/>
<path d="M115.551 10.6285H120.81C120.933 10.6285 121.036 10.7517 121.015 10.875C120.666 12.6414 120.029 14.4078 119.084 16.1537C119.064 16.1743 119.064 16.2154 119.064 16.2564V16.4413C119.064 16.5645 119.166 16.6467 119.269 16.6467H121.2C121.303 16.6467 121.385 16.5851 121.405 16.4824C121.878 14.49 122.864 12.9084 124.322 11.7582C125.821 10.5669 127.711 9.97122 129.991 9.97122C132.723 9.97122 134.818 10.8339 136.235 12.5798C137.652 14.3257 138.371 16.7699 138.371 19.9536V35.4818C138.371 35.6051 138.269 35.6872 138.166 35.6872H132.62C132.497 35.6872 132.415 35.5845 132.415 35.4818V20.8574C132.415 17.0164 130.813 15.0857 127.608 15.0857C125.842 15.0857 124.363 15.7635 123.192 17.1397C122.021 18.5158 121.426 20.2823 121.385 22.4595V35.4818C121.385 35.6051 121.282 35.6872 121.179 35.6872H115.592C115.469 35.6872 115.387 35.5845 115.387 35.4818V10.8339C115.346 10.7107 115.428 10.6285 115.551 10.6285Z" fill="white"/>
<path d="M143.157 0.584473H148.703C148.805 0.584473 148.908 0.666632 148.908 0.789872V6.33565C148.908 6.43835 148.826 6.54105 148.703 6.54105H143.157C143.054 6.54105 142.952 6.45889 142.952 6.33565V0.789872C142.952 0.687172 143.034 0.584473 143.157 0.584473ZM143.26 10.6285H148.805C148.929 10.6285 149.011 10.7312 149.011 10.8339V35.4818C149.011 35.6051 148.908 35.6872 148.805 35.6872H143.26C143.136 35.6872 143.054 35.5845 143.054 35.4818V10.8339C143.054 10.7107 143.157 10.6285 143.26 10.6285Z" fill="white"/>
<path d="M159.075 33.8797C157.987 32.6679 157.453 30.9836 157.453 28.8064V15.6813C157.453 15.5581 157.35 15.4759 157.247 15.4759H152.503C152.379 15.4759 152.297 15.3732 152.297 15.2705V10.8339C152.297 10.7107 152.4 10.6285 152.503 10.6285H157.391C157.514 10.6285 157.597 10.5258 157.597 10.4231V3.80925C157.597 3.68601 157.699 3.60385 157.802 3.60385H162.711C162.834 3.60385 162.916 3.70655 162.916 3.80925V10.4026C162.916 10.5258 163.019 10.608 163.122 10.608H169.448C169.571 10.608 169.654 10.7107 169.654 10.8134V15.25C169.654 15.3732 169.551 15.4554 169.448 15.4554H163.286C163.163 15.4554 163.081 15.5581 163.081 15.6608V27.8821C163.081 28.9501 163.245 29.669 163.574 30.0182C163.902 30.3674 164.58 30.5522 165.587 30.5522H170.578C170.701 30.5522 170.783 30.6549 170.783 30.7576V35.4613C170.783 35.5845 170.681 35.6667 170.578 35.6667H163.882C161.766 35.6872 160.164 35.0916 159.075 33.8797Z" fill="white"/>
<path d="M176.637 33.7359C175.22 31.99 174.501 29.5458 174.501 26.3621V10.8339C174.501 10.7107 174.604 10.6285 174.706 10.6285H180.252C180.375 10.6285 180.458 10.7312 180.458 10.8339V25.4583C180.458 29.2993 182.039 31.2301 185.223 31.2301C186.989 31.2301 188.468 30.5522 189.659 29.1761C190.851 27.7999 191.446 26.0335 191.487 23.8562V10.8339C191.487 10.7107 191.59 10.6285 191.693 10.6285H197.28C197.403 10.6285 197.485 10.7312 197.485 10.8339V35.4818C197.485 35.6051 197.382 35.6872 197.28 35.6872H192.022C191.898 35.6872 191.796 35.564 191.816 35.4408C192.165 33.6743 192.802 31.9079 193.747 30.162C193.767 30.1414 193.767 30.1004 193.767 30.0593V29.8744C193.767 29.7512 193.665 29.669 193.562 29.669H191.631C191.529 29.669 191.446 29.7307 191.426 29.8334C190.912 31.8668 189.926 33.4484 188.489 34.5781C187.01 35.7488 185.1 36.324 182.799 36.324C180.108 36.3445 178.054 35.4613 176.637 33.7359Z" fill="white"/>
<path d="M204.181 34.0646C202.312 32.5857 201.264 30.4906 201.059 27.7999C201.059 27.6766 201.141 27.5739 201.264 27.5739H206.666C206.769 27.5739 206.851 27.6561 206.872 27.7588C207.036 28.9707 207.55 29.9566 208.433 30.7166C209.357 31.4971 210.631 31.8873 212.274 31.8873C213.65 31.8873 214.698 31.6203 215.458 31.0657C216.218 30.5112 216.587 29.7512 216.587 28.7858C216.587 28.0874 216.402 27.5329 216.053 27.1015C215.704 26.6907 215.067 26.3005 214.164 25.9718C213.26 25.6432 211.884 25.2529 210.056 24.8216C207.118 24.1232 205.003 23.24 203.709 22.1719C202.415 21.1039 201.778 19.5839 201.778 17.6121C201.778 15.2705 202.702 13.4219 204.551 12.0458C206.399 10.6696 208.844 9.99176 211.843 9.99176C215.026 9.99176 217.471 10.7517 219.196 12.2922C220.86 13.7916 221.804 15.7635 222.01 18.2283C222.01 18.3515 221.928 18.4542 221.804 18.4542H216.608C216.505 18.4542 216.402 18.3721 216.402 18.2694C216.115 15.7224 214.574 14.4489 211.801 14.4489C210.466 14.4489 209.439 14.7159 208.72 15.2294C208.002 15.7429 207.652 16.4208 207.652 17.2629C207.652 18.0023 207.981 18.5775 208.659 18.9882C209.337 19.399 210.651 19.8304 212.623 20.2617C215.129 20.8368 217.08 21.4325 218.497 22.0692C219.894 22.706 220.921 23.5276 221.578 24.534C222.236 25.5405 222.564 26.8345 222.564 28.4366C222.564 30.9014 221.62 32.8527 219.73 34.2494C217.84 35.6461 215.375 36.365 212.336 36.365C208.823 36.3445 206.112 35.5845 204.181 34.0646Z" fill="white"/>
<path fill-rule="evenodd" clip-rule="evenodd" d="M35.5277 0.584473H17.658C17.4937 0.584473 17.3704 0.707717 17.3704 0.872037V16.6672C17.3704 16.9959 17.1034 17.2629 16.7748 17.2629H0.979578C0.815258 17.2629 0.692017 17.3861 0.692017 17.5505V35.4202C0.692017 35.5845 0.815258 35.7078 0.979578 35.7078H18.8493C19.0136 35.7078 19.1369 35.5845 19.1369 35.4202V19.6045C19.1574 19.2964 19.4039 19.0499 19.712 19.0293H35.5483C35.7126 19.0293 35.8358 18.9061 35.8358 18.7418V0.872037C35.8153 0.707717 35.6715 0.584473 35.5277 0.584473Z" fill="white"/>
</svg>
