<svg xmlns="http://www.w3.org/2000/svg" width="245.333" height="45.995" viewBox="0 0 245.333 45.995">
  <g id="kibo_logo_white" data-name="kibo logo_white" transform="translate(-0.833)">
    <path id="Path_60" data-name="Path 60" d="M18.682.539.833,18.261V44.916L45.536.539Z" fill="#ffce01"/>
    <path id="Path_61" data-name="Path 61" d="M.833,44.917H45.542L28.6,28.139Z" fill="#fff"/>
    <path id="Path_62" data-name="Path 62" d="M123.5.539h-4.9V44.916h4.9Z" fill="#fff"/>
    <g id="Group_33" data-name="Group 33">
      <path id="Path_63" data-name="Path 63" d="M172.59,22.236c3.519-1.527,7.105-4.509,7.105-10.354,0-6.8-5.759-11.118-14.589-11.118H144.678V45.236h21.259c9.793,0,16.259-4.509,16.259-12.2,0-6.166-4.288-9.215-9.6-10.8M149.667,5.273h14.986c6.4,0,9.923,2.858,9.923,7.305,0,5.273-4.226,8.007-10.3,8.007h-14.6V5.273Zm16.395,35.455H149.667V25.033h15.5c7.807,0,11.9,2.8,11.9,7.687S172.845,40.727,166.062,40.727Z" fill="#fff"/>
      <path id="Path_64" data-name="Path 64" d="M216.241,0c-13.629,0-22.912,10.736-22.912,23.062s9.153,22.933,22.781,22.933,22.912-10.736,22.912-23.062S229.874,0,216.241,0Zm0,41.362c-10.24,0-17.662-8.26-17.662-18.424s7.3-18.3,17.537-18.3,17.667,8.26,17.667,18.424-7.3,18.3-17.537,18.3" fill="#fff"/>
      <path id="Path_65" data-name="Path 65" d="M102.288.764H96.11L69.675,26.992V1.011l-5.057,5.02V45.236h5.057V33.293l7.434-7.508L96.416,45.236h5.929L80.174,22.792Z" fill="#fff"/>
      <path id="Path_66" data-name="Path 66" d="M244.2,3.734a.957.957,0,0,0,.2-.606.976.976,0,0,0-.085-.41,1.058,1.058,0,0,0-.238-.331,1.145,1.145,0,0,0-.356-.219,1.291,1.291,0,0,0-.447-.079h-1.149v3.3h.628V4.161H243l.7,1.23h.719L243.672,4.1a1.065,1.065,0,0,0,.526-.371m-1.013-.107h-.43V2.639h.43c.385,0,.577.163.577.5a.44.44,0,0,1-.147.354A.654.654,0,0,1,243.185,3.622Z" fill="#fff"/>
      <path id="Path_67" data-name="Path 67" d="M245.929,2.594a3.166,3.166,0,0,0-.65-.966,3.107,3.107,0,0,0-.962-.657,2.984,2.984,0,0,0-1.182-.236,2.906,2.906,0,0,0-1.171.236,2.977,2.977,0,0,0-.956.657,3.134,3.134,0,0,0-.645.966,2.912,2.912,0,0,0-.238,1.174,2.959,2.959,0,0,0,.238,1.179,3.074,3.074,0,0,0,1.6,1.623,2.818,2.818,0,0,0,1.171.241,2.893,2.893,0,0,0,1.182-.241,3.107,3.107,0,0,0,.962-.657,3.206,3.206,0,0,0,.65-.966,2.959,2.959,0,0,0,.238-1.179A2.912,2.912,0,0,0,245.929,2.594Zm-.611,2.139a2.327,2.327,0,0,1-1.256,1.28,2.348,2.348,0,0,1-1.855,0,2.4,2.4,0,0,1-.753-.511,2.25,2.25,0,0,1-.5-.769,2.571,2.571,0,0,1-.181-.966,2.542,2.542,0,0,1,.181-.96,2.363,2.363,0,0,1,.5-.769,2.394,2.394,0,0,1,.753-.517,2.35,2.35,0,0,1,2.608.517,2.363,2.363,0,0,1,.5.769,2.563,2.563,0,0,1,.181.96A2.593,2.593,0,0,1,245.318,4.733Z" fill="#fff"/>
      <path id="Path_68" data-name="Path 68" d="M.833,44.917,28.6,28.138l-5.34-5.486Z" fill="#656868" fill-rule="evenodd"/>
    </g>
  </g>
</svg>
