<svg width="374" height="231" viewBox="0 0 374 231" fill="none" xmlns="http://www.w3.org/2000/svg">
<path d="M248.435 194.032C253.934 194.032 257.889 193.231 260.303 191.616C262.941 189.869 264.26 186.848 264.26 182.553C264.26 175.131 260.329 171.427 252.47 171.427H244.056C236.183 171.427 232.266 175.131 232.266 182.553C232.266 186.834 233.572 189.856 236.21 191.616C238.622 193.231 242.579 194.032 248.078 194.032H248.435ZM246.272 200.731C240.574 200.731 236.288 200.153 233.426 198.945C230.275 197.605 227.835 195.425 226.068 192.364C224.459 189.461 223.641 186.243 223.641 182.697C223.641 177.128 225.408 172.78 228.916 169.707C232.424 166.607 237.489 165.07 244.108 165.07H252.39C259.011 165.07 264.075 166.62 267.583 169.707C271.104 172.78 272.858 177.128 272.858 182.697C272.858 186.243 272.053 189.475 270.432 192.364C268.678 195.412 266.212 197.592 263.086 198.945C260.211 200.14 255.938 200.731 250.241 200.731H246.272Z" fill="white"/>
<path d="M209.61 200.731C203.925 200.731 199.6 200.153 196.739 198.945C193.6 197.605 191.134 195.425 189.38 192.364C187.758 189.461 186.953 186.243 186.953 182.697L186.927 169.01C186.927 166.804 188.787 165.031 191.094 165.031C193.389 165.031 195.262 166.817 195.262 169.01L195.288 182.566C195.288 186.848 196.607 189.869 199.245 191.629C201.657 193.244 205.666 194.046 211.166 194.046L219.092 194.072C221.017 194.072 222.573 195.569 222.573 197.408C222.573 199.26 221.017 200.744 219.092 200.744L209.61 200.731Z" fill="white"/>
<path d="M300.776 200.731C295.092 200.731 291.571 200.153 288.697 198.945C285.557 197.605 283.091 195.425 281.337 192.364C279.703 189.461 278.898 186.243 278.898 182.697L278.871 169.01C278.871 166.804 280.731 165.031 283.026 165.031C285.333 165.031 287.193 166.817 287.193 169.01L287.233 182.566C287.233 186.848 288.551 189.869 291.176 191.629C293.589 193.244 295.198 194.046 300.71 194.046H300.922C306.421 194.046 308.029 193.244 310.443 191.629C313.08 189.882 314.4 186.861 314.4 182.566L314.439 169.01C314.439 166.804 316.285 165.031 318.607 165.031C320.901 165.031 322.76 166.817 322.76 169.01L322.747 182.697C322.747 186.243 321.93 189.475 320.32 192.364C318.566 195.412 316.101 197.592 312.962 198.945C310.1 200.14 306.565 200.731 300.882 200.731H300.776Z" fill="white"/>
<path d="M1.21762 169.234C1.21762 166.935 3.09028 165.07 5.38494 165.07C6.41357 165.07 7.3631 165.438 8.08842 166.055L32.1032 186.086C33.9099 187.596 35.2683 188.897 36.2046 189.947C35.9673 186.637 35.8617 184.575 35.8617 183.8V168.8C35.8617 166.738 37.5365 165.07 39.607 165.07C41.6775 165.07 43.3655 166.738 43.3655 168.8V196.567C43.3655 198.879 41.4929 200.731 39.1982 200.731C38.1696 200.731 37.2332 200.363 36.4948 199.746L11.3589 178.691C10.238 177.771 9.24889 176.799 8.36535 175.788C8.6027 178.1 8.72148 179.978 8.72148 181.462V196.804V197.001C8.72148 199.063 7.0334 200.744 4.97612 200.744C2.90565 200.744 1.21762 199.063 1.21762 197.001L1.23081 196.804L1.21762 169.234Z" fill="white"/>
<path d="M134.783 165.07C136.55 165.07 137.987 166.502 137.987 168.249C137.987 170.009 136.55 171.427 134.783 171.427H134.756H121.595L121.622 196.567C121.622 198.866 119.748 200.718 117.454 200.718C115.146 200.718 113.273 198.866 113.273 196.567L113.26 171.427H100.086H100.073C98.3055 171.427 96.868 169.996 96.868 168.249C96.868 166.489 98.3055 165.07 100.073 165.07H100.086H134.756H134.783Z" fill="white"/>
<path d="M58.1226 185.179C58.571 188.095 59.8238 190.25 61.8943 191.616C64.2944 193.231 68.2639 194.032 73.7632 194.032H89.4829C91.3424 194.032 92.8721 195.53 92.8721 197.382C92.8721 199.234 91.3555 200.744 89.4829 200.744L71.9565 200.731C66.2594 200.731 61.9865 200.153 59.1116 198.945C55.9598 197.605 53.5069 195.425 51.7529 192.364C50.144 189.461 49.3264 186.243 49.3264 182.697C49.3264 177.128 51.0935 172.78 54.6015 169.707C58.1226 166.607 63.1735 165.07 69.7937 165.07H89.6412C91.4083 165.07 92.8458 166.502 92.8458 168.249C92.8458 170.009 91.4083 171.427 89.6412 171.427H69.7277C63.1998 171.427 59.3885 173.989 58.2808 179.085L80.8318 179.098H80.8714C82.5594 179.098 83.9309 180.464 83.9309 182.132C83.9309 183.813 82.5594 185.179 80.8714 185.179H80.8318H58.1226Z" fill="white"/>
<path d="M158.942 171.427C151.083 171.427 147.14 175.131 147.14 182.553C147.14 186.834 148.458 189.856 151.096 191.616C153.509 193.231 157.465 194.032 162.964 194.032H178.751C180.584 194.032 182.113 195.53 182.113 197.382C182.113 199.234 180.597 200.744 178.751 200.744L161.158 200.731C155.474 200.731 151.188 200.153 148.314 198.945C145.174 197.605 142.721 195.425 140.967 192.364C139.346 189.461 138.542 186.243 138.542 182.697C138.542 177.128 140.296 172.78 143.817 169.707C147.338 166.607 152.401 165.07 159.022 165.07H178.922C180.662 165.07 182.1 166.502 182.1 168.249C182.1 170.009 180.676 171.427 178.922 171.427H158.942Z" fill="white"/>
<path d="M337.293 194.032H348.054C353.553 194.032 357.523 193.231 359.923 191.616C362.574 189.869 363.88 186.848 363.88 182.553C363.88 175.131 359.949 171.427 352.077 171.427H337.293V194.032ZM328.958 169.286C328.958 166.975 330.791 165.07 333.033 165.07H352.01C358.618 165.07 363.695 166.62 367.216 169.707C370.724 172.793 372.478 177.128 372.478 182.697C372.478 186.243 371.673 189.475 370.051 192.377C368.297 195.425 365.845 197.605 362.693 198.945C359.818 200.14 355.544 200.744 349.861 200.744H333.205C330.871 200.744 328.958 198.932 328.958 196.686L328.972 195.635L328.958 169.286Z" fill="white"/>
<path d="M8.06205 230.587H1.60007V228.919H3.73648V215.955H1.61326V214.3H8.07523V215.955H5.92564V228.919H8.06205V230.587Z" fill="white"/>
<path d="M32.7758 229.405C32.3802 229.575 32.0109 229.746 31.6812 229.891C31.3515 230.048 30.9295 230.206 30.402 230.377C29.9536 230.521 29.4656 230.639 28.9514 230.731C28.4239 230.836 27.8568 230.876 27.2238 230.876C26.0369 230.876 24.9555 230.705 23.9928 230.377C23.0169 230.048 22.1861 229.523 21.4608 228.814C20.7618 228.117 20.2079 227.237 19.8123 226.174C19.4167 225.11 19.2188 223.862 19.2188 222.456C19.2188 221.117 19.4167 219.908 19.7859 218.857C20.1683 217.807 20.7222 216.913 21.4344 216.178C22.1333 215.469 22.9641 214.93 23.9533 214.562C24.9423 214.194 26.0237 214.011 27.237 214.011C28.1206 214.011 28.9909 214.116 29.8613 214.326C30.7317 214.536 31.7076 214.904 32.7758 215.442V218.017H32.6176C31.7208 217.268 30.824 216.716 29.9404 216.375C29.0569 216.033 28.1074 215.863 27.0919 215.863C26.2611 215.863 25.5225 215.994 24.8632 216.257C24.2038 216.519 23.6104 216.94 23.096 217.504C22.5949 218.056 22.1992 218.739 21.9223 219.58C21.6454 220.42 21.5003 221.379 21.5003 222.469C21.5003 223.612 21.6586 224.597 21.9619 225.425C22.2652 226.252 22.674 226.922 23.162 227.434C23.6763 227.973 24.2697 228.38 24.9555 228.63C25.6412 228.892 26.3665 229.024 27.1182 229.024C28.1601 229.024 29.1492 228.84 30.0591 228.485C30.9691 228.131 31.8263 227.592 32.6307 226.883H32.7889V229.405H32.7758Z" fill="white"/>
<path d="M55.8938 216.23H50.0516V230.587H47.8757V216.23H42.0335V214.3H55.8938V216.23Z" fill="white"/>
<path d="M93.4656 219.225C93.4656 219.948 93.3338 220.617 93.0832 221.235C92.8326 221.852 92.4765 222.378 92.0281 222.837C91.4611 223.402 90.8017 223.822 90.0236 224.098C89.2587 224.374 88.2828 224.519 87.1091 224.519H84.9331V230.587H82.7572V214.3H87.1883C88.1642 214.3 88.995 214.378 89.6807 214.549C90.3665 214.72 90.9599 214.969 91.4875 215.324C92.1072 215.744 92.5952 216.257 92.9381 216.874C93.2942 217.491 93.4656 218.266 93.4656 219.225ZM91.2105 219.278C91.2105 218.713 91.105 218.227 90.9072 217.82C90.7094 217.399 90.406 217.058 90.0104 216.808C89.6543 216.585 89.2587 216.414 88.8103 216.322C88.362 216.217 87.7949 216.178 87.1091 216.178H84.9595V222.68H86.7927C87.6762 222.68 88.3884 222.601 88.929 222.443C89.4697 222.286 89.9181 222.036 90.2742 221.695C90.6171 221.34 90.8544 220.972 90.9995 220.591C91.1313 220.184 91.2105 219.751 91.2105 219.278Z" fill="white"/>
<path d="M118.245 230.587H115.423L109.95 224.111H106.891V230.587H104.715V214.3H109.29C110.28 214.3 111.098 214.365 111.757 214.497C112.416 214.628 113.009 214.851 113.537 215.18C114.131 215.547 114.593 216.02 114.922 216.585C115.251 217.15 115.423 217.872 115.423 218.739C115.423 219.908 115.133 220.893 114.539 221.681C113.946 222.469 113.129 223.074 112.087 223.468L118.245 230.587ZM113.155 218.884C113.155 218.424 113.076 218.004 112.904 217.636C112.733 217.281 112.469 216.966 112.087 216.73C111.77 216.519 111.401 216.375 110.966 216.283C110.53 216.204 110.029 216.152 109.436 216.152H106.878V222.299H109.067C109.752 222.299 110.359 222.233 110.874 222.115C111.388 221.997 111.823 221.773 112.179 221.445C112.508 221.143 112.746 220.788 112.904 220.394C113.076 220 113.155 219.488 113.155 218.884Z" fill="white"/>
<path d="M140.928 216.165C141.601 216.9 142.102 217.78 142.458 218.844C142.814 219.908 142.985 221.103 142.985 222.443C142.985 223.783 142.801 224.991 142.445 226.042C142.089 227.106 141.575 227.986 140.928 228.695C140.255 229.431 139.464 229.983 138.542 230.35C137.618 230.718 136.577 230.902 135.403 230.902C134.255 230.902 133.213 230.718 132.263 230.337C131.328 229.956 130.523 229.405 129.864 228.682C129.204 227.96 128.703 227.08 128.347 226.029C127.991 224.978 127.82 223.783 127.82 222.43C127.82 221.103 127.991 219.908 128.347 218.857C128.703 217.807 129.217 216.9 129.89 216.152C130.537 215.442 131.341 214.891 132.291 214.51C133.239 214.129 134.282 213.945 135.416 213.945C136.59 213.945 137.631 214.142 138.568 214.523C139.477 214.917 140.282 215.455 140.928 216.165ZM140.73 222.443C140.73 220.328 140.255 218.7 139.306 217.544C138.357 216.401 137.051 215.823 135.416 215.823C133.754 215.823 132.448 216.401 131.499 217.544C130.55 218.687 130.075 220.328 130.075 222.443C130.075 224.584 130.563 226.213 131.525 227.343C132.488 228.472 133.781 229.037 135.416 229.037C137.038 229.037 138.33 228.472 139.293 227.343C140.242 226.213 140.73 224.584 140.73 222.443Z" fill="white"/>
<path d="M165.273 216.23H157.003V220.828H164.112V222.758H157.003V230.6H154.828V214.313H165.273V216.23Z" fill="white"/>
<path d="M186.9 230.587H176.126V214.3H186.9V216.23H178.302V220.696H186.9V222.627H178.302V228.669H186.9V230.587Z" fill="white"/>
<path d="M210.612 225.937C210.612 226.568 210.467 227.198 210.163 227.815C209.86 228.433 209.451 228.958 208.91 229.392C208.331 229.864 207.644 230.219 206.867 230.482C206.089 230.744 205.152 230.876 204.045 230.876C202.871 230.876 201.803 230.771 200.866 230.547C199.93 230.324 198.968 230.009 197.992 229.575V226.87H198.149C198.981 227.553 199.93 228.078 201.012 228.459C202.093 228.84 203.108 229.011 204.058 229.011C205.403 229.011 206.458 228.761 207.21 228.262C207.962 227.763 208.331 227.093 208.331 226.252C208.331 225.53 208.159 224.991 207.803 224.65C207.446 224.308 206.906 224.046 206.181 223.849C205.627 223.704 205.034 223.586 204.4 223.494C203.755 223.402 203.082 223.284 202.37 223.126C200.919 222.824 199.851 222.299 199.152 221.563C198.452 220.828 198.11 219.856 198.11 218.673C198.11 217.307 198.69 216.191 199.838 215.324C200.998 214.457 202.462 214.011 204.243 214.011C205.389 214.011 206.444 214.116 207.407 214.339C208.37 214.562 209.215 214.825 209.952 215.153V217.715H209.794C209.174 217.189 208.357 216.756 207.341 216.401C206.326 216.06 205.284 215.889 204.23 215.889C203.069 215.889 202.132 216.125 201.42 216.611C200.708 217.097 200.365 217.715 200.365 218.476C200.365 219.159 200.537 219.685 200.892 220.079C201.249 220.46 201.868 220.762 202.752 220.959C203.214 221.064 203.886 221.182 204.757 221.327C205.614 221.471 206.352 221.629 206.945 221.773C208.159 222.089 209.082 222.575 209.688 223.231C210.309 223.862 210.612 224.768 210.612 225.937Z" fill="white"/>
<path d="M234.139 225.937C234.139 226.568 233.994 227.198 233.691 227.815C233.387 228.433 232.979 228.958 232.438 229.392C231.857 229.864 231.171 230.219 230.393 230.482C229.615 230.744 228.679 230.876 227.571 230.876C226.397 230.876 225.329 230.771 224.393 230.547C223.457 230.324 222.494 230.009 221.518 229.575V226.87H221.676C222.508 227.553 223.457 228.078 224.538 228.459C225.619 228.84 226.635 229.011 227.584 229.011C228.929 229.011 229.985 228.761 230.737 228.262C231.488 227.763 231.857 227.093 231.857 226.252C231.857 225.53 231.686 224.991 231.33 224.65C230.974 224.308 230.433 224.046 229.708 223.849C229.154 223.704 228.56 223.586 227.927 223.494C227.281 223.402 226.608 223.284 225.896 223.126C224.446 222.824 223.377 222.299 222.678 221.563C221.98 220.828 221.637 219.856 221.637 218.673C221.637 217.307 222.218 216.191 223.364 215.324C224.525 214.457 225.989 214.011 227.769 214.011C228.916 214.011 229.972 214.116 230.934 214.339C231.897 214.562 232.741 214.825 233.48 215.153V217.715H233.321C232.702 217.189 231.883 216.756 230.868 216.401C229.853 216.06 228.811 215.889 227.756 215.889C226.595 215.889 225.659 216.125 224.947 216.611C224.235 217.097 223.892 217.715 223.892 218.476C223.892 219.159 224.063 219.685 224.419 220.079C224.776 220.46 225.395 220.762 226.279 220.959C226.741 221.064 227.413 221.182 228.284 221.327C229.14 221.471 229.879 221.629 230.473 221.773C231.686 222.089 232.609 222.575 233.216 223.231C233.822 223.862 234.139 224.768 234.139 225.937Z" fill="white"/>
<path d="M251.771 230.587H245.322V228.919H247.459V215.955H245.322V214.3H251.771V215.955H249.634V228.919H251.771V230.587Z" fill="white"/>
<path d="M276.049 216.165C276.722 216.9 277.223 217.78 277.579 218.844C277.935 219.908 278.106 221.103 278.106 222.443C278.106 223.783 277.922 224.991 277.566 226.042C277.21 227.106 276.696 227.986 276.049 228.695C275.376 229.431 274.585 229.983 273.663 230.35C272.739 230.718 271.698 230.902 270.524 230.902C269.376 230.902 268.334 230.718 267.385 230.337C266.449 229.956 265.644 229.405 264.985 228.682C264.325 227.96 263.824 227.08 263.469 226.029C263.112 224.978 262.941 223.783 262.941 222.43C262.941 221.103 263.112 219.908 263.469 218.857C263.824 217.807 264.338 216.9 265.011 216.152C265.658 215.442 266.462 214.891 267.412 214.51C268.361 214.129 269.403 213.945 270.537 213.945C271.711 213.945 272.753 214.142 273.689 214.523C274.598 214.917 275.404 215.455 276.049 216.165ZM275.851 222.443C275.851 220.328 275.376 218.7 274.428 217.544C273.478 216.401 272.173 215.823 270.537 215.823C268.875 215.823 267.569 216.401 266.62 217.544C265.671 218.687 265.196 220.328 265.196 222.443C265.196 224.584 265.684 226.213 266.646 227.343C267.609 228.472 268.902 229.037 270.537 229.037C272.159 229.037 273.452 228.472 274.414 227.343C275.363 226.213 275.851 224.584 275.851 222.443Z" fill="white"/>
<path d="M302.412 230.587H299.721L291.967 216.02V230.587H289.936V214.3H293.312L300.381 227.592V214.3H302.412V230.587Z" fill="white"/>
<path d="M328.048 230.587H325.727L324.132 226.042H317.063L315.467 230.587H313.265L319.213 214.3H322.114L328.048 230.587ZM323.459 224.19L320.598 216.191L317.722 224.19H323.459Z" fill="white"/>
<path d="M349.254 230.587H338.915V214.3H341.092V228.656H349.254V230.587Z" fill="white"/>
<path d="M371.7 225.937C371.7 226.568 371.555 227.198 371.251 227.815C370.961 228.433 370.539 228.958 369.998 229.392C369.418 229.864 368.732 230.219 367.954 230.482C367.176 230.744 366.24 230.876 365.132 230.876C363.958 230.876 362.891 230.771 361.954 230.547C361.017 230.324 360.055 230.009 359.08 229.575V226.87H359.237C360.069 227.553 361.017 228.078 362.099 228.459C363.181 228.84 364.196 229.011 365.146 229.011C366.49 229.011 367.545 228.761 368.297 228.262C369.05 227.763 369.418 227.093 369.418 226.252C369.418 225.53 369.247 224.991 368.891 224.65C368.534 224.308 367.994 224.046 367.268 223.849C366.715 223.704 366.122 223.586 365.488 223.494C364.842 223.402 364.17 223.284 363.457 223.126C362.006 222.824 360.939 222.299 360.239 221.563C359.54 220.828 359.198 219.856 359.198 218.673C359.198 217.307 359.778 216.191 360.925 215.324C362.086 214.457 363.549 214.011 365.331 214.011C366.477 214.011 367.532 214.116 368.495 214.339C369.458 214.562 370.302 214.825 371.04 215.153V217.715H370.882C370.262 217.189 369.445 216.756 368.429 216.401C367.414 216.06 366.372 215.889 365.317 215.889C364.156 215.889 363.22 216.125 362.508 216.611C361.795 217.097 361.453 217.715 361.453 218.476C361.453 219.159 361.625 219.685 361.98 220.079C362.337 220.46 362.956 220.762 363.84 220.959C364.301 221.064 364.974 221.182 365.845 221.327C366.702 221.471 367.44 221.629 368.033 221.773C369.247 222.089 370.17 222.575 370.776 223.231C371.383 223.862 371.7 224.768 371.7 225.937Z" fill="white"/>
<path d="M111.427 144.934C105.558 144.934 101.272 143.003 98.2527 140.731C77.403 125.009 82.2561 67.8056 107.523 31.4351C130.8 -2.05889 164.165 -8.69202 199.06 13.2432C212.564 21.7415 225.224 29.0445 237.053 35.2836C254.87 21.1504 272.423 11.1548 289.593 5.3886C315.903 -3.43806 340.604 -1.34961 357.365 11.1285C372.754 22.5953 377.819 40.7214 369.128 53.3047C363.233 61.8292 351.522 67.5035 333.442 67.5035C311.26 67.5035 279.531 58.979 237.199 36.7678C219.619 50.8091 201.776 68.9089 183.802 90.9756L183.815 90.9887C148.142 134.032 125.354 144.934 111.427 144.934ZM159.457 1.48753C134.611 1.48753 117.783 18.865 108.552 32.1444C83.6012 68.0552 78.6031 124.352 99.0043 139.72C108.83 147.128 132.792 150.543 182.76 90.2663H182.747C200.655 68.2785 218.445 50.2048 235.985 36.1374C224.261 29.9377 211.733 22.7004 198.387 14.3072C183.736 5.08649 170.772 1.48753 159.457 1.48753ZM238.267 35.9272C314.043 75.6471 355.294 71.1419 368.1 52.6085C376.395 40.5901 371.462 23.1995 356.626 12.1399C340.208 -0.0886555 315.916 -2.12457 290.002 6.58387C273.095 12.245 255.806 22.0568 238.267 35.9272Z" fill="#43499C"/>
<path d="M101.84 141.545C97.7912 141.545 94.3755 140.823 91.5139 139.706C80.3043 135.333 73.7895 123.314 73.1566 105.871C72.062 75.24 89.7467 34.6269 121.212 19.6925C144.318 8.72487 168.701 10.7345 193.692 25.6426C206.55 33.2871 218.894 40.0647 230.789 46.028C250.544 31.7503 269.759 21.7547 288.274 16.1723C324.566 5.21785 346.353 14.7538 356.112 21.4263C370.776 31.4351 376.763 47.3414 370.697 60.1086C359.989 82.6349 323.143 81.0587 292.231 72.0745C272.964 66.479 252.721 58.3748 231.027 47.5516C214.871 59.2548 197.674 74.2811 179.647 93.1954C141.627 131.248 117.177 141.545 101.84 141.545ZM151.188 13.9919C141.179 13.9919 131.367 16.2643 121.766 20.8221C90.7622 35.5332 73.3544 75.5946 74.4225 105.832C75.0292 122.736 81.2538 134.361 91.9754 138.537C110.794 145.893 141.588 129.501 178.684 92.381C195.987 74.2154 213.012 59.0184 229.655 46.8554C217.904 40.9447 205.733 34.2459 193.059 26.7065C178.843 18.2345 164.851 13.9919 151.188 13.9919ZM232.173 46.7241C253.577 57.3765 273.557 65.3494 292.573 70.8792C338.955 84.3556 362.745 73.8871 369.55 59.5832C375.353 47.3808 369.537 32.1181 355.4 22.4639C331.991 6.4788 288.314 6.51822 232.173 46.7241Z" fill="#43499C"/>
<path d="M92.4634 138.17C86.819 138.17 81.544 137.066 76.8227 134.531C65.1385 128.279 59.3754 113.621 61.4326 95.3232C64.4263 68.62 83.8649 37.0305 115.251 28.3615C140.401 21.4 164.297 24.5787 188.325 38.0551C200.497 44.8852 212.208 50.9798 223.628 56.4308C287.813 14.5436 335.064 16.4219 358.552 34.3247C371.581 44.2547 376.262 58.9264 370.209 70.8398C362.587 85.853 337.161 96.8863 288.71 82.8188C267.227 76.5929 246.008 68.4624 223.708 57.8625C208.542 67.8056 192.426 80.2181 175.44 95.4414C154.67 112.714 119.472 138.17 92.4634 138.17ZM140.691 26.0366C132.435 26.0366 124.088 27.2188 115.595 29.5568C84.7485 38.0945 65.6263 69.1716 62.6855 95.4546C60.6942 113.226 66.2066 127.425 77.4294 133.428C88.8763 139.549 116.742 142.636 174.688 94.4301C191.45 79.4037 207.394 67.1095 222.401 57.2189C211.179 51.8467 199.666 45.8309 187.705 39.1321C172.117 30.3843 156.569 26.0366 140.691 26.0366ZM224.947 57.0481C246.931 67.4641 267.873 75.4633 289.065 81.5973C336.778 95.4414 361.69 84.8284 369.089 70.2618C374.852 58.9002 370.316 44.8589 357.786 35.3099C334.708 17.7222 288.235 15.9359 224.947 57.0481Z" fill="#43499C"/>
<path d="M83.9969 134.794C73.3675 134.794 66.2989 131.852 61.7887 128.739C50.2759 120.779 46.0822 105.503 50.5924 87.902C56.4345 65.0998 76.8359 40.5244 109.29 37.0305C136.51 34.0883 159.918 38.3572 182.944 50.4413C194.048 56.26 204.744 61.514 215.254 66.3082C243.027 49.9947 269.125 39.6444 293.22 35.4149C321.507 30.45 346.142 34.7451 360.82 47.1838C372.333 56.9562 375.88 70.4589 369.854 81.5841C361.598 96.8337 335.024 107.986 285.189 93.5369C261.107 86.5623 238.649 78.3004 215.333 67.7268C201.09 76.1331 186.399 86.1025 171.3 97.6218V97.6087C129.27 126.65 101.708 134.794 83.9969 134.794ZM125.341 37.3983C120.171 37.3983 114.883 37.6873 109.423 38.2784C77.5876 41.7066 57.5423 65.8354 51.8188 88.2172C47.4537 105.293 51.4496 120.07 62.5141 127.714C74.2775 135.845 103.963 142.622 170.614 96.5579C185.463 85.2356 199.916 75.3976 213.948 67.0701C203.662 62.3678 193.204 57.2189 182.364 51.5315C164.178 42.0087 145.741 37.3983 125.341 37.3983ZM216.665 66.9387C239.638 77.3153 261.807 85.4458 285.544 92.3285C334.656 106.567 360.727 95.8092 368.745 80.9799C374.482 70.3932 371.04 57.4947 360.002 48.1295C345.628 35.9272 321.363 31.7372 293.444 36.6365C269.733 40.8134 244.03 50.9667 216.665 66.9387Z" fill="#43499C"/>
<path d="M75.8204 131.576C63.6482 131.576 53.797 128.581 46.7416 122.513C36.4684 113.673 33.8177 98.7252 39.8312 83.515C44.0381 72.8757 52.0299 63.3003 62.3163 56.549C73.9874 48.9045 88.1773 45.1479 103.317 45.739C132.62 46.8554 155.527 52.1357 177.577 62.8406C187.217 67.5166 196.528 71.8249 205.72 75.8048C238.372 58.8213 268.915 48.366 295.567 45.1873C324.699 41.7197 349.241 47.105 362.904 59.9772C373.044 69.5394 375.63 81.9519 369.629 92.3679C364.671 100.985 354.398 107.145 340.709 109.719C324.765 112.714 304.35 110.823 281.668 104.268C254.422 96.3872 230.486 87.8889 205.772 77.1971C193.178 83.7776 180.267 91.3171 167.145 99.8026V99.7886C130.431 120.779 98.9249 131.576 75.8204 131.576ZM100.666 46.9343C77.8382 46.9343 51.199 58.1777 40.9918 83.9615C35.176 98.6595 37.6948 113.056 47.546 121.541C57.028 129.698 87.5839 143.791 166.526 98.6858V98.6989C179.344 90.4108 191.964 83.0158 204.282 76.5535C195.367 72.6655 186.333 68.5018 177.01 63.9702C155.118 53.331 132.369 48.1033 103.251 46.9868C102.407 46.9605 101.549 46.9343 100.666 46.9343ZM207.21 76.4484C231.541 86.93 255.174 95.2838 282.023 103.06C313.661 112.215 355.307 114.763 368.547 91.7505C374.245 81.86 371.752 70.0385 362.046 60.8967C348.661 48.2871 324.488 43.0201 295.725 46.4351C269.469 49.5744 239.387 59.8065 207.21 76.4484Z" fill="#43499C"/>
<path d="M68.9233 128.384C52.5178 128.384 39.8444 124.312 31.945 116.077C23.2938 107.053 22.041 93.6814 28.6745 81.1769C33.6593 71.7855 42.5084 63.9045 53.5992 58.9921C66.2594 53.3835 81.3856 51.8073 97.3428 54.4474C119.472 58.0989 145.676 63.4317 172.209 75.24C179.753 78.6025 187.151 81.768 194.484 84.789C232.715 67.2408 267.966 57.0481 297.796 55.0648C327.745 53.0683 352.169 59.4912 364.816 72.7049C373.744 82.0176 375.511 93.4318 369.551 103.218C364.248 111.913 353.448 118.113 339.126 120.687C322.47 123.682 301.383 121.725 278.147 115C247.366 106.107 221.215 97.1227 194.497 86.1682C184.197 90.9099 173.673 96.1901 162.991 101.996L162.925 101.891L162.978 101.996C125.709 119.466 93.2282 128.384 68.9233 128.384ZM83.3639 54.5656C62.2239 54.5656 40.0422 62.4334 29.7822 81.768C23.4125 93.7733 24.5862 106.593 32.8549 115.21C52.0826 135.267 100.534 129.895 162.463 100.84C172.79 95.2313 182.957 90.1218 192.927 85.4983C185.924 82.6086 178.882 79.5745 171.682 76.3827C145.281 64.627 119.182 59.3205 97.1186 55.6821C92.6876 54.9465 88.0586 54.5656 83.3639 54.5656ZM196.079 85.4458C222.375 96.1901 248.197 105.03 278.515 113.791C330.673 128.87 359.581 117.167 368.495 102.561C374.153 93.2873 372.438 82.451 363.932 73.5718C351.535 60.634 327.468 54.3555 297.902 56.3257C268.48 58.2697 233.757 68.2522 196.079 85.4458Z" fill="#43499C"/>
<path d="M320.954 133.073C308.042 133.073 292.64 130.919 274.638 125.731C239.467 115.578 211.324 106.239 181.177 94.6402C173.845 97.5956 166.394 100.775 158.85 104.177L158.692 103.822L158.837 104.19C120.646 118.677 88.2169 125.889 62.4218 125.494C41.4401 125.206 25.5094 119.61 17.5704 109.746C10.5941 101.09 10.383 89.9511 17.0033 79.9554C22.5554 71.5622 32.2219 65.113 44.1963 61.7898C57.9775 57.9676 74.2775 58.4404 91.3424 63.169C119.802 71.0499 143.527 78.2216 166.829 87.6524C171.682 89.5964 176.455 91.4747 181.177 93.2873C225.909 75.3188 266.58 65.5858 299.866 64.9947C330.607 64.4562 354.899 71.8643 366.57 85.3144C374.311 94.2462 375.445 104.991 369.603 114.08C363.062 124.247 347.105 133.073 320.954 133.073ZM182.891 93.9441C212.524 105.306 240.35 114.527 274.994 124.523C328.774 140.048 359 128.24 368.562 113.397C374.087 104.807 372.992 94.6139 365.634 86.1288C354.2 72.9545 330.238 65.704 299.893 66.2426C267.055 66.8205 226.991 76.3433 182.891 93.9441ZM64.0439 60.634C45.3964 60.634 27.5271 66.3345 18.0451 80.6384C11.7414 90.1612 11.9393 100.735 18.5463 108.945C40.0026 135.582 104.847 123.327 158.375 102.981C165.483 99.7756 172.526 96.7681 179.462 93.9572C175.15 92.2891 170.785 90.5684 166.354 88.7952C143.091 79.3906 119.406 72.2321 90.9995 64.3643C82.4275 62 73.1433 60.634 64.0439 60.634Z" fill="#43499C"/>
<path d="M319.186 143.962C304.68 143.962 288.366 141.427 271.117 136.462C228.85 124.273 197.992 114.317 165.009 102.64C161.607 103.822 158.164 105.057 154.696 106.344L154.656 106.357C112.575 119.072 77.1656 124.483 49.3923 122.434C27.0655 120.766 10.8183 114.133 3.67053 103.73C-1.61774 96.0194 -1.16936 86.8512 4.87061 79.1936C16.2384 64.7846 45.5151 56.943 85.3155 71.8906C116.373 83.5806 141.257 92.8933 165.009 101.313C217.523 83.0027 264.628 73.9133 301.765 74.9641C333.231 75.8573 357.444 84.1848 368.192 97.832C375.023 106.515 375.617 116.405 369.787 124.995C363.8 133.822 351.853 140.101 336.159 142.675C330.858 143.529 325.174 143.962 319.186 143.962ZM166.921 101.97C199.323 113.41 229.879 123.248 271.473 135.254C323.393 150.228 357.747 140.534 368.759 124.286C374.245 116.182 373.691 106.817 367.216 98.5938C346.578 72.3897 276.96 63.9045 166.921 101.97ZM44.9613 65.0604C26.3138 65.0604 12.7173 71.2732 5.87287 79.9554C0.0966676 87.2715 -0.312159 95.6779 4.72555 103.008C11.6491 113.095 27.5535 119.544 49.511 121.16C77.1128 123.196 112.364 117.811 154.301 105.135C157.268 104.045 160.221 102.981 163.149 101.957C139.821 93.6682 115.331 84.5001 84.8936 73.0464C69.9124 67.4378 56.4741 65.0604 44.9613 65.0604Z" fill="#43499C"/>
</svg>
