<svg width="152" height="33" viewBox="0 0 152 33" fill="none" xmlns="http://www.w3.org/2000/svg">
<g clip-path="url(#clip0_3900_171)">
<mask id="mask0_3900_171" style="mask-type:luminance" maskUnits="userSpaceOnUse" x="0" y="0" width="152" height="33">
<path d="M151.252 0.972717H0V32.7356H151.252V0.972717Z" fill="white"/>
</mask>
<g mask="url(#mask0_3900_171)">
<path d="M27.049 0.972748V32.525H21.8089L7.07575 13.6429V32.525H0V0.972748H4.97061L19.9279 20.0983V0.972748H27.049Z" fill="white"/>
<path d="M55.385 0.972778V20.5032C55.385 21.7546 55.1297 22.8418 54.6246 23.7649C54.1167 24.6879 53.4075 25.3873 52.4968 25.8658C51.5861 26.3414 50.5647 26.5793 49.4299 26.5793C48.295 26.5793 47.2198 26.3414 46.2949 25.8658C45.37 25.3901 44.6295 24.6907 44.079 23.7649C43.5259 22.8418 43.2506 21.7377 43.2506 20.458V0.972778H36.1749V20.1012C36.1749 22.5758 36.7367 24.7871 37.8544 26.7378C38.9723 28.6914 40.5242 30.2231 42.5101 31.3416C44.4962 32.4571 46.8028 33.0176 49.4299 33.0176C52.057 33.0176 54.2644 32.4571 56.2361 31.3416C58.2051 30.2231 59.7429 28.6971 60.8493 26.7605C61.9529 24.8238 62.5061 22.6183 62.5061 20.1465V0.972778H55.385Z" fill="white"/>
<path d="M87.1334 19.3267C88.186 19.1371 89.1562 18.8284 90.0414 18.4038C91.6528 17.628 92.9068 16.5493 93.8035 15.1647C94.6999 13.7774 95.1454 12.1324 95.1454 10.224C95.1454 8.43748 94.7055 6.84344 93.8261 5.44194C92.9437 4.04327 91.7124 2.94755 90.1294 2.15761C88.5462 1.36767 86.6964 0.971283 84.5771 0.971283H71.6342V32.5235H78.71V19.5618H79.4335L88.8327 32.5235H97.208L87.1361 19.3239L87.1334 19.3267ZM78.71 14.2927V6.46971H83.7714C85.1446 6.46971 86.2112 6.84344 86.9744 7.58808C87.7348 8.33272 88.115 9.27271 88.115 10.4024C88.115 11.5944 87.7263 12.5401 86.9517 13.2394C86.1745 13.9416 85.0991 14.2898 83.7289 14.2898H78.7127L78.71 14.2927Z" fill="white"/>
<path d="M139.784 8.72777L138.473 6.72885L142.252 0.972778H150.67L142.454 12.7936L139.784 8.72777Z" fill="white"/>
<path d="M151.251 32.5253H143.145L138.464 25.3563L139.571 23.666L142.266 19.5352L151.251 32.5253Z" fill="white"/>
<path d="M139.416 16.0184L135.958 21.3159L135.895 21.4149L128.638 32.525H120.533L131.765 16.2902L121.117 0.972778H129.535L135.895 10.6559L136.176 11.0863L139.416 16.0184Z" fill="white"/>
<path d="M111.408 0.972778H104.332V6.58445H111.408V0.972778Z" fill="white"/>
<path d="M111.408 6.58417V32.5247H104.332V13.6455C104.332 9.74675 107.502 6.58417 111.408 6.58417Z" fill="white"/>
</g>
</g>
<defs>
<clipPath id="clip0_3900_171">
<rect width="151.252" height="31.7629" fill="white" transform="translate(0 0.972717)"/>
</clipPath>
</defs>
</svg>
