<svg width="215" height="38" viewBox="0 0 215 38" fill="none" xmlns="http://www.w3.org/2000/svg">
<g clip-path="url(#clip0_3900_147)">
<path fill-rule="evenodd" clip-rule="evenodd" d="M10.9346 22.0327C7.94481 20.8248 5.31376 19.8621 5.31376 17.4523C5.31376 14.6777 7.82522 13.715 10.0975 13.715C14.0441 13.715 16.1968 15.8856 16.1968 16.0052L16.4359 16.2444L18.2298 13.2306L18.1102 13.111C17.9907 12.9914 15.5988 10.2169 10.2171 10.2169C6.03132 10.2169 1.36718 12.5071 1.36718 17.4523C1.36718 22.3974 5.55295 23.8445 9.26034 25.2916C12.2502 26.4995 14.8812 27.5818 14.8812 29.872C14.8812 32.527 12.4894 33.7289 10.0975 33.7289C5.55295 33.7289 2.8023 30.7152 2.8023 30.7152L2.56312 30.476L0.530029 33.2505L0.649623 33.3701C0.649623 33.3701 1.48678 34.3329 3.04149 35.3016C4.47661 36.1447 6.86847 37.1074 10.0975 37.1074C15.24 37.1074 18.9474 33.9741 18.9474 29.7524C18.9474 25.172 14.642 23.4857 10.9346 22.0387V22.0327Z" fill="white"/>
<path fill-rule="evenodd" clip-rule="evenodd" d="M36.5336 10.2169C28.9992 10.2169 23.0195 16.1248 23.0195 23.5994C23.0195 31.0739 28.9992 37.221 36.5336 37.221C44.068 37.221 50.0476 31.1935 50.0476 23.5994C49.928 16.1248 44.068 10.2169 36.5336 10.2169ZM45.9814 23.5994C45.9814 29.2681 41.7957 33.7289 36.414 33.7289C31.0323 33.7289 26.8465 29.2681 26.8465 23.5994C26.8465 17.9306 31.0323 13.8346 36.414 13.8346C41.7957 13.8346 45.9814 18.0562 45.9814 23.5994Z" fill="white"/>
<path fill-rule="evenodd" clip-rule="evenodd" d="M66.6712 0.691249C66.6712 0.691249 66.0732 0.571655 65.1165 0.571655C62.4854 0.571655 56.2665 1.53438 56.2665 10.2169V11.1796H52.7983V14.5581H56.2665V36.6231H60.0935V14.4385H66.5516V11.1856H60.0935V10.2228C60.0935 7.93262 60.8111 4.07574 65.4752 4.07574C66.1928 4.07574 66.6712 4.19533 66.6712 4.19533H66.9104V0.691249H66.6712Z" fill="white"/>
<path fill-rule="evenodd" clip-rule="evenodd" d="M84.7357 33.4837L84.4965 33.6033C84.4965 33.6033 84.0181 33.7229 83.4201 33.7229C81.3871 33.7229 77.9188 32.8798 77.9188 27.0915V14.5521H84.2573V11.1736H77.7993V3.70499H73.9723V11.1796H70.6237V14.5581H73.9723V27.3366C73.9723 35.8995 79.7128 37.1014 83.0614 37.1014C84.0181 37.1014 84.4965 36.9818 84.6161 36.9818H84.8553V33.4837" fill="white"/>
<path fill-rule="evenodd" clip-rule="evenodd" d="M92.6288 28.9033C92.6288 28.9033 95.3795 31.6779 99.5653 31.6779C101.359 31.6779 102.914 30.8347 102.914 29.3877C102.914 25.5308 90.4762 26.0092 90.4762 17.811C90.4762 12.9914 94.7815 10.2169 100.283 10.2169C105.784 10.2169 108.894 13.111 108.894 13.111L106.502 17.811C106.502 17.811 104.11 15.6404 100.283 15.6404C98.6085 15.6404 97.0538 16.364 97.0538 17.9306C97.0538 21.5483 109.492 21.064 109.492 29.3817C109.492 33.7229 105.784 37.0955 99.6849 37.0955C93.5856 37.0955 89.7586 33.3582 89.7586 33.3582L92.6288 28.8973V28.9033Z" fill="white"/>
<path fill-rule="evenodd" clip-rule="evenodd" d="M126.474 10.2169C133.889 10.2169 137.835 15.6404 137.835 22.3915C137.835 23.115 137.716 24.9209 137.716 24.9209H120.016C120.374 29.3817 123.843 31.7915 127.67 31.7915C131.736 31.7915 135.084 29.0169 135.084 29.0169L137.596 33.5974C137.596 33.5974 133.649 37.3346 127.311 37.3346C118.82 37.3346 113.558 31.1875 113.558 23.8326C113.558 15.754 118.939 10.2109 126.474 10.2109V10.2169ZM131.377 20.5856C131.257 17.0875 129.105 15.2816 126.354 15.2816C123.125 15.2816 120.853 17.3327 120.255 20.5856H131.377Z" fill="white"/>
<path fill-rule="evenodd" clip-rule="evenodd" d="M144.18 10.8208H150.279V15.2816C150.279 16.2444 150.159 17.0875 150.159 17.0875H150.279C151.475 13.3502 154.465 10.4561 158.411 10.4561C159.009 10.4561 159.607 10.5756 159.607 10.5756V16.8423C159.607 16.8423 159.009 16.7227 158.052 16.7227C155.302 16.7227 152.312 18.2894 151.116 22.1463C150.757 23.3542 150.518 24.8013 150.518 26.3679V36.6171H144.18V10.8208Z" fill="white"/>
<path fill-rule="evenodd" clip-rule="evenodd" d="M162.358 10.8208H169.055L174.317 26.7327C174.795 28.2994 175.154 29.9856 175.274 29.9856H175.393C175.393 29.9856 175.752 28.2994 176.35 26.7327L181.612 10.8208H188.309L179.101 36.6231H171.566L162.358 10.8208Z" fill="white"/>
<path fill-rule="evenodd" clip-rule="evenodd" d="M202.906 10.2169C210.321 10.2169 214.267 15.6404 214.267 22.3915C214.267 23.115 214.148 24.9209 214.148 24.9209H196.567C196.926 29.3817 200.394 31.7915 204.221 31.7915C208.288 31.7915 211.636 29.0169 211.636 29.0169L214.148 33.5974C214.148 33.5974 210.201 37.3346 203.863 37.3346C195.371 37.3346 190.109 31.1875 190.109 23.8326C189.87 15.754 195.252 10.2109 202.906 10.2109V10.2169ZM207.809 20.5856C207.69 17.0875 205.537 15.2816 202.786 15.2816C199.557 15.2816 197.285 17.3327 196.687 20.5856H207.809Z" fill="white"/>
</g>
<defs>
<clipPath id="clip0_3900_147">
<rect width="213.737" height="36.769" fill="white" transform="translate(0.530029 0.571655)"/>
</clipPath>
</defs>
</svg>
