<svg width="168" height="57" viewBox="0 0 168 57" fill="none" xmlns="http://www.w3.org/2000/svg">
<path d="M158.261 16.7052C158.261 14.5389 160.006 12.8137 162.153 12.8137C164.299 12.8137 166.044 14.5389 166.044 16.7052C166.044 18.8715 164.319 20.5968 162.153 20.5968C159.986 20.5968 158.261 18.852 158.261 16.7052ZM158.775 16.7052C158.775 18.5589 160.279 20.0831 162.153 20.0831C164.026 20.0831 165.511 18.5589 165.511 16.7052C165.511 14.8516 164.006 13.3469 162.153 13.3469C160.299 13.3469 158.775 14.8348 158.775 16.7052ZM163.216 18.9441L162.061 17.1826H161.254V18.9441H160.668V14.4831H162.485C163.255 14.4831 163.897 15.0163 163.897 15.8426C163.897 16.8336 163.015 17.163 162.758 17.163L163.953 18.9441H163.219H163.216ZM161.251 14.9967V16.6494H162.482C162.94 16.6494 163.289 16.3004 163.289 15.8426C163.289 15.3457 162.94 14.9995 162.482 14.9995H161.251V14.9967Z" fill="white"/>
<path d="M156.879 19.8319C156.879 20.1948 156.823 20.5577 156.712 20.8927C156.6 21.1998 156.433 21.4789 156.209 21.7302C155.986 21.9535 155.735 22.1489 155.428 22.2885C155.148 22.4002 154.841 22.4839 154.534 22.4839C154.339 22.4839 154.144 22.456 153.948 22.4002C153.697 22.3443 153.39 22.2327 152.999 22.121C152.692 22.0093 152.385 21.9535 152.078 21.8977C151.799 21.8418 151.491 21.8139 151.212 21.8139C150.375 21.8139 149.537 21.9814 148.784 22.2885C147.918 22.6514 147.081 23.126 146.355 23.7122C145.517 24.3543 144.764 25.1081 144.094 25.9456C143.396 26.811 142.781 27.7322 142.279 28.7372C141.777 29.7143 141.358 30.7472 141.079 31.808C140.827 32.813 140.688 33.8738 140.688 34.9067V52.2373C140.688 52.5723 140.632 52.9352 140.492 53.2423C140.381 53.5493 140.185 53.8285 139.934 54.0518C139.711 54.2752 139.432 54.4706 139.097 54.6102C138.454 54.8614 137.729 54.8614 137.059 54.6102C136.752 54.4985 136.472 54.3031 136.221 54.0518C135.97 53.8285 135.802 53.5493 135.663 53.2423C135.523 52.9073 135.467 52.5723 135.467 52.2373V20.7559C135.467 20.4209 135.523 20.058 135.663 19.7509C135.774 19.4438 135.97 19.1646 136.221 18.9413C136.444 18.718 136.724 18.5226 137.059 18.383C137.701 18.1317 138.427 18.1317 139.097 18.383C139.404 18.4947 139.683 18.6901 139.934 18.9413C140.185 19.1646 140.353 19.4438 140.492 19.7509C140.632 20.0859 140.688 20.4209 140.688 20.7559V24.8596C141.721 22.9613 143.117 21.2863 144.819 19.9491C145.908 19.0558 147.164 18.3579 148.504 17.8833C149.872 17.4087 151.324 17.1575 152.804 17.1575C153.278 17.1575 153.781 17.2133 154.255 17.325C154.702 17.4087 155.148 17.5762 155.539 17.7716C155.763 17.8833 155.958 17.9949 156.126 18.1624C156.293 18.302 156.433 18.4416 156.544 18.637C156.656 18.8045 156.74 18.9999 156.823 19.2233C156.851 19.3908 156.879 19.6141 156.879 19.8374V19.8319ZM129.39 18.9106C129.167 18.6873 128.887 18.4919 128.552 18.3523C127.91 18.101 127.185 18.101 126.515 18.3523C126.208 18.4639 125.928 18.6594 125.677 18.9106C125.426 19.1339 125.258 19.4131 125.119 19.7202C124.979 20.0552 124.923 20.3902 124.923 20.7252V40.5124C124.951 41.964 124.728 43.3878 124.281 44.7557C123.89 45.9282 123.22 46.989 122.355 47.8544C121.462 48.6919 120.401 49.334 119.228 49.7248C117.888 50.1714 116.465 50.3669 115.041 50.339C113.645 50.3669 112.249 50.1435 110.937 49.7248C109.793 49.334 108.732 48.6919 107.866 47.8544C107.001 46.989 106.359 45.9282 105.968 44.7557C105.521 43.3878 105.326 41.9361 105.354 40.5124V20.7531C105.354 20.4181 105.298 20.0552 105.158 19.7481C105.047 19.441 104.851 19.1619 104.6 18.9385C104.377 18.7152 104.098 18.5198 103.763 18.3802C103.121 18.1289 102.395 18.1289 101.725 18.3802C101.418 18.4919 101.139 18.6873 100.887 18.9385C100.636 19.1619 100.469 19.441 100.329 19.7481C100.189 20.0831 100.134 20.4181 100.134 20.7531V40.5403C100.106 42.6619 100.441 44.7836 101.139 46.8187C101.753 48.5774 102.786 50.1407 104.098 51.4528C105.438 52.737 107.029 53.714 108.788 54.3282C110.798 54.9982 112.891 55.3332 114.982 55.2774C117.104 55.3053 119.226 54.9982 121.233 54.3282C122.992 53.742 124.611 52.7649 125.979 51.4807C127.319 50.1966 128.351 48.6053 128.966 46.8466C129.664 44.8366 129.999 42.715 129.971 40.5682V20.7531C129.971 20.4181 129.915 20.0552 129.775 19.7481C129.803 19.4131 129.636 19.1339 129.384 18.9106H129.39ZM30.6774 18.9106C30.4541 18.6873 30.1749 18.4919 29.8399 18.3523C29.1978 18.101 28.472 18.101 27.802 18.3523C27.4949 18.4639 27.2158 18.6594 26.9645 18.9106C26.7133 19.1339 26.5458 19.4131 26.4062 19.7202C26.2666 20.0552 26.2108 20.3902 26.2108 20.7252V40.5124C26.2387 41.964 26.0154 43.3878 25.5687 44.7557C25.1779 45.9282 24.5079 46.989 23.6425 47.8544C22.7491 48.6919 21.6883 49.334 20.5158 49.7248C19.1758 50.1714 17.7521 50.3669 16.3283 50.339C14.9325 50.3669 13.5367 50.1435 12.2246 49.7248C11.0801 49.334 10.0192 48.6919 9.15382 47.8544C8.28841 46.989 7.64633 45.9282 7.2555 44.7557C6.80883 43.3878 6.61342 41.9361 6.64134 40.5124V20.7531C6.64134 20.4181 6.5855 20.0552 6.44592 19.7481C6.33426 19.441 6.13884 19.1619 5.88759 18.9385C5.66426 18.7152 5.3851 18.5198 5.0501 18.3802C4.7151 18.2406 4.3801 18.1848 4.04511 18.1848C3.71011 18.1848 3.3472 18.2406 3.04011 18.3802C2.73303 18.4919 2.45387 18.6873 2.20262 18.9385C1.95137 19.1619 1.78387 19.441 1.64429 19.7481C1.50471 20.0831 1.44888 20.4181 1.44888 20.7531V40.5403C1.42096 42.6619 1.75596 44.7836 2.45387 46.8187C3.06803 48.5774 4.10094 50.1407 5.41301 51.4528C6.753 52.737 8.34424 53.714 10.103 54.3282C12.113 54.9982 14.2067 55.3332 16.2976 55.2774C18.4193 55.3053 20.5409 54.9982 22.5481 54.3282C24.3069 53.742 25.926 52.7649 27.2939 51.4807C28.6339 50.1966 29.6668 48.6053 30.281 46.8466C30.9789 44.8366 31.3139 42.715 31.286 40.5682V20.7531C31.286 20.4181 31.2301 20.0552 31.0906 19.7481C31.0906 19.4131 30.9231 19.1339 30.6718 18.9106H30.6774ZM91.686 21.8139C90.6252 20.446 89.2294 19.3852 87.6381 18.7152C86.019 18.0173 84.0927 17.6544 81.918 17.6544C80.7176 17.6544 79.4893 17.8219 78.3168 18.1569C77.0885 18.5198 75.916 19.0223 74.7994 19.6364C73.906 20.1389 73.0685 20.7252 72.2869 21.3952C71.5331 22.0372 70.8631 22.7352 70.249 23.4889V4.45547C70.249 4.12047 70.1931 3.75756 70.0536 3.45048C69.9419 3.1434 69.7465 2.86423 69.4952 2.6409C69.244 2.38965 68.9648 2.22215 68.6577 2.08257C68.0157 1.83132 67.2898 1.83132 66.6198 2.08257C66.3128 2.19424 66.0336 2.38965 65.7823 2.6409C65.5311 2.86423 65.3636 3.1434 65.224 3.45048C65.0844 3.78547 65.0286 4.12047 65.0286 4.45547V52.1786C65.0286 52.5136 65.0844 52.8766 65.224 53.1836C65.3357 53.4907 65.5311 53.7699 65.7823 53.9932C66.0057 54.2165 66.2848 54.412 66.6198 54.5515C67.2619 54.8028 67.9877 54.8028 68.6577 54.5515C68.9648 54.4399 69.244 54.2445 69.4952 53.9932C69.7465 53.7699 69.914 53.4907 70.0536 53.1836C70.1931 52.8486 70.249 52.5136 70.249 52.1786V32.3077C70.249 31.4702 70.3886 30.6048 70.6398 29.7952C70.919 28.9577 71.2819 28.1761 71.7844 27.4782C72.2869 26.7244 72.901 26.0544 73.571 25.4403C74.2689 24.8261 75.0227 24.2957 75.8602 23.8769C76.6698 23.4303 77.5631 23.0953 78.4564 22.872C79.3497 22.6486 80.2989 22.537 81.2201 22.537C82.5043 22.509 83.8164 22.7324 85.0168 23.2069C86.0497 23.6257 86.9709 24.3236 87.6688 25.2169C88.3947 26.1661 88.9251 27.2269 89.2322 28.3715C89.5951 29.6556 89.7626 30.9956 89.7347 32.3356V52.1786C89.7347 52.5136 89.7905 52.8766 89.9301 53.1836C90.0417 53.4907 90.2372 53.7699 90.4884 53.9932C90.7117 54.2165 90.9909 54.412 91.3259 54.5515C91.968 54.8028 92.6938 54.8028 93.3638 54.5515C93.6709 54.4399 93.95 54.2445 94.2013 53.9932C94.4525 53.7699 94.62 53.4907 94.7596 53.1836C94.8992 52.8486 94.955 52.5136 94.955 52.1786V32.3077C94.983 30.3256 94.7038 28.3715 94.1734 26.476C93.5871 24.801 92.7775 23.2097 91.6888 21.8139H91.686ZM60.4838 39.3399C59.9534 38.642 59.3671 37.9999 58.6692 37.4415C57.9713 36.8832 57.2176 36.4086 56.408 36.0457C55.5147 35.627 54.5934 35.2641 53.6722 34.957C52.6393 34.622 51.5226 34.287 50.2943 33.9799C48.9264 33.6449 47.5585 33.2262 46.2464 32.7516C45.2135 32.3887 44.2364 31.9141 43.3152 31.3558C42.6173 30.9649 42.0589 30.4066 41.6402 29.7087C41.2494 29.0108 41.026 28.257 40.9981 27.4475C40.9702 26.582 41.1656 25.7446 41.5285 24.9908C41.8914 24.265 42.4498 23.6508 43.1198 23.2321C43.8735 22.7296 44.711 22.3667 45.6043 22.1433C46.5535 21.8921 47.5585 21.7804 48.5356 21.7804C49.373 21.7804 50.2105 21.8642 51.0201 22.0037C51.8018 22.1433 52.5834 22.3946 53.3372 22.7017C54.063 23.0087 54.7609 23.3996 55.403 23.8742C56.0451 24.3487 56.6592 24.8791 57.1897 25.4933C57.413 25.7166 57.6642 25.8841 57.9434 26.0237C58.1946 26.1354 58.5017 26.1912 58.7809 26.1912C59.088 26.1912 59.3671 26.1354 59.6463 26.0516C59.8976 25.9679 60.1488 25.8283 60.3442 25.6608C60.6234 25.4375 60.8188 25.1304 60.9863 24.8233C61.1259 24.5162 61.2096 24.1812 61.2096 23.8462C61.2096 23.5112 61.1538 23.1762 61.0142 22.8412C60.8746 22.5621 60.6792 22.2829 60.4559 22.0875C59.7301 21.25 58.8926 20.4963 57.9713 19.8542C57.078 19.2121 56.073 18.7096 55.0401 18.3188C54.0351 17.9279 52.9743 17.6209 51.9134 17.4255C50.8805 17.23 49.8476 17.1184 48.8147 17.1184C47.6701 17.1184 46.5256 17.23 45.381 17.4534C44.3202 17.6488 43.3152 17.9838 42.3381 18.4304C41.4169 18.8492 40.5515 19.3796 39.7419 20.0217C38.9881 20.6358 38.3181 21.3338 37.7598 22.1154C37.2015 22.8971 36.7827 23.7625 36.4756 24.6837C36.1965 25.605 36.0569 26.582 36.0569 27.5591C36.029 29.0108 36.3361 30.4624 36.9502 31.8024C37.5365 33.0307 38.4577 34.0916 39.5744 34.8732C40.8306 35.7386 42.1706 36.4645 43.5664 37.0507C45.2693 37.7486 47.056 38.3349 48.8398 38.7815C50.0682 39.0886 51.2686 39.4515 52.4411 39.8982C53.3902 40.2611 54.2836 40.7078 55.149 41.2382C55.819 41.6569 56.3494 42.2153 56.7123 42.9132C57.4102 44.4207 57.4102 46.1794 56.6565 47.6869C56.2377 48.4127 55.6515 49.0269 54.9535 49.4735C54.144 49.976 53.2786 50.3669 52.3573 50.6181C51.3802 50.8694 50.3473 51.0089 49.3423 50.981C47.2765 51.0089 45.2107 50.5623 43.3431 49.641C41.4727 48.6919 39.8815 47.324 38.6252 45.649C38.374 45.3977 38.0669 45.1744 37.7319 45.0069C37.4248 44.8673 37.0898 44.8115 36.7548 44.8115C36.4756 44.8115 36.2244 44.8394 35.9732 44.9511C35.7498 45.0348 35.5265 45.1744 35.359 45.3419C35.1915 45.4257 35.024 45.5373 34.8844 45.6769C34.7448 45.7886 34.6332 45.9282 34.5494 46.0677C34.4377 46.2073 34.3819 46.3748 34.3261 46.5702C34.2702 46.7656 34.2423 46.9331 34.2423 47.1286C34.2423 47.4077 34.2982 47.6869 34.4098 47.9381C34.5494 48.301 34.7169 48.636 34.9123 48.9431C36.5315 51.0369 38.5973 52.7118 40.9953 53.8536C43.3124 54.9424 45.9617 55.5007 48.8929 55.5007C50.6237 55.5286 52.3545 55.2774 53.9988 54.8028C55.5063 54.3561 56.93 53.6582 58.2142 52.7091C60.6988 50.9782 62.1504 48.1028 62.0667 45.0627C62.0667 43.974 61.955 42.9132 61.6758 41.8803C61.3967 40.9311 61.0058 40.0936 60.4754 39.3399H60.4838Z" fill="white"/>
</svg>
